<?xml version="1.0" encoding="UTF-8"?>
<svg width="64px" height="64px" viewBox="0 0 64 64" version="1.1" xmlns="http://www.w3.org/2000/svg" xmlns:xlink="http://www.w3.org/1999/xlink">
    <title>tool_texture_wave</title>
    <g id="tool_texture_wave" stroke="none" stroke-width="1" fill="none" fill-rule="evenodd">
        <path d="M3,40.3472429 L23.1882653,56 C22.7160264,50.4458038 22.7160264,45.9094512 23.1882653,42.3909422 C23.8966237,37.1131788 27.8087814,36.5648203 30.2160369,39.4778812 C32.6232924,42.3909422 34.6744092,46.5689838 37.8953965,44.479963 C41.1163838,42.3909422 39.8614852,37.2551231 39.8614852,31.5 C39.8614852,25.7448769 45.249423,24.0567559 48.8484479,29.6160348 C52.4474728,35.1753137 57.5446588,33.7944827 57.5446588,26.1294816 C57.5446588,21.0194808 58.611286,17.843048 60.7445404,16.6001832 L39.8614852,7.12263147 C37.5126687,9.88364633 36.0164097,12.7199331 35.3727082,15.6314917 C34.4071559,19.9988297 33.4474031,18.8877277 29.5666501,16.6001832 C25.6858972,14.3126387 21.2924462,9.19487825 19.812609,16.6001832 C18.3327719,24.0054881 23.1034557,26.7211735 19.0705499,29.6160348 C17.8733949,30.475365 16.6889303,30.2313161 15.5225706,29.4632347 C12.7597662,27.6438486 10.0985472,22.8841497 7.61087627,22.8841497 C4.07299739,22.8841497 3,30.3639708 3,35.088197 C3,38.2376811 3,39.9906964 3,40.3472429 Z" id="Path-51" stroke="#000000" stroke-width="3"></path>
        <polyline id="Path-52" stroke="#000000" stroke-width="3" points="62 16.1850562 62 35.4055017 24 58.1850562"></polyline>
        <line x1="7.5" y1="23.5" x2="25.5" y2="37.5" id="Line-Copy" stroke="#000000" stroke-width="3" stroke-linecap="square"></line>
        <line x1="24.5" y1="13.5" x2="43.5" y2="25.5" id="Line-Copy-2" stroke="#000000" stroke-width="3" stroke-linecap="square"></line>
    </g>
</svg>