<?xml version="1.0" encoding="UTF-8"?>
<svg width="64px" height="64px" viewBox="0 0 64 64" version="1.1" xmlns="http://www.w3.org/2000/svg" xmlns:xlink="http://www.w3.org/1999/xlink">
    <title>tool_hole_dome</title>
    <g id="tool_hole_dome" stroke="none" stroke-width="1" fill="none" fill-rule="evenodd">
        <path d="M12.6577392,18.5805378 C14.6710882,18.3421689 17.0006395,18.634111 19.4949531,19.3756879 C24.6381222,20.9047881 30.4378369,24.3397114 35.6931974,29.2844472 C40.941916,34.2229338 44.6648347,39.7416758 46.4107072,44.690528 C47.2526017,47.0769632 47.6326072,49.3195608 47.4595268,51.2752744 C47.3105249,52.9589138 46.7451149,54.4183201 45.6649177,55.5081765 C44.573757,56.6090944 43.0812485,57.2135761 41.3422608,57.4194622 C39.3289118,57.6578311 36.9993605,57.365889 34.5050469,56.6243121 C29.3618778,55.0952119 23.5621631,51.6602886 18.3068026,46.7155528 C13.058084,41.7770662 9.33516529,36.2583242 7.58929279,31.309472 C6.74739828,28.9230368 6.36739282,26.6804392 6.54047323,24.7247256 C6.68947511,23.0410862 7.25488514,21.5816799 8.33508232,20.4918235 C9.42624303,19.3909056 10.9187515,18.7864239 12.6577392,18.5805378 Z" id="Oval-Copy" stroke="#000000" stroke-width="3"></path>
        <path d="M9.66360458,19.450314 C34.3887122,2.60634702 46.5268409,7.91172922 51.3207961,12.4558646 C56.1147513,17 63.6819362,28.5316573 46.5811248,54.4487313" id="Path-41" stroke="#000000" stroke-width="3"></path>
    </g>
</svg>