<?xml version="1.0" encoding="UTF-8"?>
<svg width="64px" height="64px" viewBox="0 0 64 64" version="1.1" xmlns="http://www.w3.org/2000/svg" xmlns:xlink="http://www.w3.org/1999/xlink">
    <title>Icon</title>
    <g id="Icon" stroke="none" stroke-width="1" fill="none" fill-rule="evenodd">
        <path d="M11.6577392,19.5805378 C13.6710882,19.3421689 16.0006395,19.634111 18.4949531,20.3756879 C23.6381222,21.9047881 29.4378369,25.3397114 34.6931974,30.2844472 C39.941916,35.2229338 43.6648347,40.7416758 45.4107072,45.690528 C46.2526017,48.0769632 46.6326072,50.3195608 46.4595268,52.2752744 C46.3105249,53.9589138 45.7451149,55.4183201 44.6649177,56.5081765 C43.573757,57.6090944 42.0812485,58.2135761 40.3422608,58.4194622 C38.3289118,58.6578311 35.9993605,58.365889 33.5050469,57.6243121 C28.3618778,56.0952119 22.5621631,52.6602886 17.3068026,47.7155528 C12.058084,42.7770662 8.33516529,37.2583242 6.58929279,32.309472 C5.74739828,29.9230368 5.36739282,27.6804392 5.54047323,25.7247256 C5.68947511,24.0410862 6.25488514,22.5816799 7.33508232,21.4918235 C8.42624303,20.3909056 9.91875155,19.7864239 11.6577392,19.5805378 Z" id="Oval" stroke="#000000" stroke-width="3"></path>
        <polyline id="Path-40" stroke="#000000" stroke-width="3" points="10.9232699 19.6647391 56 6 46.4001356 52.8082357"></polyline>
    </g>
</svg>