<?xml version="1.0" encoding="UTF-8"?>
<svg width="64px" height="64px" viewBox="0 0 64 64" version="1.1" xmlns="http://www.w3.org/2000/svg" xmlns:xlink="http://www.w3.org/1999/xlink">
    <title>tool_select</title>
    <g id="tool_select" stroke="none" stroke-width="1" fill="none" fill-rule="evenodd">
        <path d="M26.5,5 L49,20.3042573 L49,29.52 L46,28.393 L46,22.979 L41.293,26.623 L39.094,25.797 L44.832,21.3541056 L39.204,17.27 L36.09,15.152 L27.933,21.421 L28.522,21.903 L29.355,25.167 L26.304,22.672 L18.056,29.011 L26.5,35.5491056 L31.095,31.991 L31.634,34.103 L27.5,37.304 L27.5,61.8141056 L25.5,61.8141056 L25.5,37.304 L17.149,30.838 L17.1492195,57.7095254 L15.1492195,57.7095254 L15.149,29.29 L7,22.98 L7,56.8949784 L4,56.8949784 L4,20.3042573 L26.5,5 Z M46,49.545 L49,53.101 L49,56.8949784 L46,56.8949784 L46,49.545 Z M17.019,15.077 L13.799,17.267 L8.167,21.3541056 L16.421,27.745 L24.714,21.371 L17.019,15.077 Z M26.5,8.62810559 L18.744,13.904 L26.342,20.12 L34.348,13.967 L26.5,8.62810559 Z" id="Combined-Shape" fill="#FFFFFF" fill-rule="nonzero"></path>
        <polygon id="Path-4" stroke="#FFFFFF" stroke-width="3" stroke-linecap="round" points="57.1342266 56.4022933 45.4570057 44.043853 40.2223344 52.7215149 32.5 25.8141056 57.612711 35.6753142 49.8688755 39.9403142 60.901527 52.2441927"></polygon>
    </g>
</svg>