<?xml version="1.0" encoding="UTF-8"?>
<svg width="64px" height="64px" viewBox="0 0 64 64" version="1.1" xmlns="http://www.w3.org/2000/svg" xmlns:xlink="http://www.w3.org/1999/xlink">
    <title>tool_texture</title>
    <g id="tool_texture" stroke="none" stroke-width="1" fill="none" fill-rule="evenodd">
        <polygon id="Path-29" stroke="#FFFFFF" stroke-width="3" points="4 40.552572 30.1927338 55.7164091 61 37.7527111 42.1160983 29.4836701 41.4297 27.4213147 39.4131633 25.608398 39.0116286 23.1890896 37.4505844 21 33.9389376 21 31.4074562 23.1890896 30.6294202 25.9722777 28.3173626 27.4213147 27.2861785 30.4451416 21.3558968 33.3804038 18.3135793 31.7333765 15.2078218 32.9836355 13.8051719 36.2966099"></polygon>
        <polyline id="Path-31" stroke="#FFFFFF" points="22.5343861 50.6740793 23.0876616 47.3822701 25.8320392 46.432473 26.3624588 43.1259156 28.3938584 41.4036149 28.3938584 38.624828 31.6048852 37.8719855 33.068773 39.5265146 36.1818488 40.4788191 37.31146 42.4007318 39.3898746 42.5791819 41.5140539 44.0417593 54.4671959 36.1024197"></polyline>
        <polyline id="Path-31-Copy" stroke="#FFFFFF" points="6 42.5791819 9.87151975 41.1629356 10.7771808 39 12.7528126 38.0164372 13.1766526 36.2529468 14.3797365 33.250259 17.5626637 32.3191954 20.3114539 33.250259 20.6706414 35.289591 22.7969452 35.8188079 23.7454886 37.1299383 26.40133 37.1299383 32.7254935 33.6378816"></polyline>
        <path d="M33.068773,39.5265146 C33.3030341,39.5265146 33.4888156,39.3265935 33.6261177,38.9267511 L34.3965349,37.2010676 L35.7057355,36.5 L36.3581551,34.2850886 L38.1281904,32.8418589 L38.500791,30.4503623 L42.1862688,30.4503623 L43.2166671,33.0700552 L45.4087993,33.9322613 L45.4087993,35.7107945 L47.9206025,35.7107945 L51.0899237,33.9322613" id="Path-30" stroke="#FFFFFF"></path>
        <polyline id="Path-32" stroke="#FFFFFF" points="9.87151975 41.1629356 14.0358884 43.3882495 17.0535232 43.3882495 20.7357588 44.2969474 23.4852415 42.5791819 25.0100093 40.3863203 24.3121206 37.4491887"></polyline>
        <polyline id="Path-33" stroke="#FFFFFF" points="14.3623064 36.9969434 17.3281478 39.863655 20.4183685 38.9322891 20.6706414 35.289591"></polyline>
        <polyline id="Path-34" stroke="#FFFFFF" points="27.4499486 30.9279034 32.7254935 33.6378816 36.5622752 33.6378816 38.1281904 32.6029653"></polyline>
        <polyline id="Path-35" stroke="#FFFFFF" points="31.4165306 26.934105 35.176669 28.3888296 38.8007555 26.392365"></polyline>
        <polyline id="Path-36" stroke="#FFFFFF" points="25.8320392 46.432473 28.7243769 48.2161277 32 48.2161277 35.3211475 47.3243003 38.500791 45.8596264 39.0734263 42.5791819"></polyline>
        <polyline id="Path-37" stroke="#FFFFFF" points="28.1832185 41.9494616 31.4165306 43.3882495 33.1557044 42.5791819 35.3935023 40.4649166"></polyline>
        <polyline id="Path-38" stroke="#FFFFFF" points="35.7057355 36.5 39.9238842 38.624828 43.8301192 38.214289 45.7922522 35.289591"></polyline>
        <polyline id="Path-39" stroke="#FFFFFF" points="38.1281904 33.2585855 40.582706 34.9884385 43.0601069 35.289591 43.2166671 33.0700552"></polyline>
    </g>
</svg>