<?xml version="1.0" encoding="UTF-8"?>
<svg width="64px" height="64px" viewBox="0 0 64 64" version="1.1" xmlns="http://www.w3.org/2000/svg" xmlns:xlink="http://www.w3.org/1999/xlink">
    <title>tool_hole</title>
    <g id="tool_hole" stroke="none" stroke-width="1" fill="none" fill-rule="evenodd">
        <g id="Group" transform="translate(0.000000, 30.000000)" fill="#000000" fill-rule="nonzero">
            <path d="M21.7260262,0.427743152 L24.9850262,2.01174315 L18.8039914,5.56646461 C20.1576801,6.08014231 21.4216502,7.01846976 22.5945489,8.37251884 C22.6791897,8.47023209 22.7590699,8.57857265 22.8359407,8.69994476 L28.0373194,5.21254775 L30.9760262,6.42188938 L31.0198166,6.15445166 C31.0867919,5.756777 31.1582023,5.38899929 31.2357475,5.04837737 L32.1605543,5.49880182 C32.1061778,5.75599747 32.054519,6.03137115 32.0049265,6.32640865 L31.9230262,6.81088938 L38.1560262,9.37688938 L38.1984042,9.29331427 C38.3184525,9.05958098 38.4427233,8.83335076 38.5712205,8.614644 L39.4734805,9.05344232 C39.3387696,9.27932363 39.2086669,9.5146361 39.0832056,9.75939145 L43.8751145,11.731195 L43.8410262,11.8138894 L48.5660262,9.05088938 L45.7990262,7.83274315 L48.4150262,5.70674315 L56.1147513,9.09591585 L52.0059395,10.9372496 C50.0216523,11.8264933 48.3498713,12.8339904 46.9878727,13.9679513 L46.6538253,14.2540809 L45.8091294,14.9856627 C45.626806,15.1486482 45.463246,15.3016041 45.3064822,15.4573709 C44.9296123,15.8318442 44.6253001,16.186283 44.414587,16.5283509 L44.34752,16.6439447 L44.3480787,16.6548554 L44.3592781,16.9534492 L44.4400204,18.2335955 C44.5022889,19.329748 44.4373474,19.6865135 44.2583476,20.1318369 C43.9179933,20.9785847 43.4870386,21.4305961 42.3945314,22.0832689 L42.1670401,22.2166554 L42.0277094,22.2978603 C41.9929068,22.3184087 41.9606061,22.3366234 41.9307911,22.3530111 L41.90752,22.3649447 L41.9785963,23.2704695 C42.0695362,24.4858264 42.0012326,24.8282022 41.7807522,25.28574 L41.7346292,25.3790758 C41.189188,26.4604557 40.4656928,27.0355672 39.542088,27.3057115 L39.3411017,27.359005 L39.29752,27.3689447 L38.8910455,28.6829158 C38.4796892,29.9732498 38.2318489,30.2899058 37.7707407,30.6126908 L37.6870781,30.669916 C35.7475039,31.9705046 34.4642921,32.5961619 33.2313997,32.6946492 C31.9723306,32.7952276 30.7310942,32.3698545 28.8852139,31.3300588 C28.0545598,30.8621462 27.6017416,30.3024503 27.1282423,29.223223 L27.0263164,28.9838521 L26.8289583,28.5090883 L26.77852,28.4059447 L26.6657663,28.3955326 L26.3313321,28.2906078 C25.5401772,28.0261912 24.9329469,27.6497681 24.4490321,27.0553944 C24.0112031,26.517626 23.6138691,25.6136137 23.2532755,24.2404139 L23.2290262,24.1477432 L23.24952,24.2299447 L0.855026176,12.430383 L21.7260262,0.427743152 Z M38.8908345,22.1826313 L37.0342779,23.4009149 C36.8284356,25.5479799 35.7797848,27.1919424 33.2608255,29.6661894 C33.758782,29.5696533 34.3015027,29.2880877 35.0607127,28.806279 L35.2951422,28.6557138 L35.842,28.294 L35.8842688,28.1892728 C35.9463745,28.0272188 36.0184793,27.8147007 36.1067551,27.5360425 L36.1617105,27.3607854 L36.4554665,26.3996498 L36.6689036,25.7418401 C36.801281,25.3609166 36.8806044,25.2253509 37.0900019,25.0413925 C37.4415725,24.7325332 37.739306,24.6118573 38.2213011,24.5186753 L38.4111516,24.484707 L38.6116687,24.4484945 L38.7064498,24.4238877 C38.8236897,24.3858927 38.8960334,24.3219978 39.0006919,24.1332593 L39.0530262,24.0327432 L39.0371238,24.061317 C39.0266782,24.0763482 39.0203287,24.0776549 39.0164153,24.0688237 L39.0121647,24.0484218 L38.9993833,23.6910678 L38.8987978,22.3294476 C38.8957062,22.277975 38.8930445,22.229119 38.8908345,22.1826313 Z M35.8935002,24.1485492 L31.6971138,26.8954198 L31.6755807,26.8873413 C31.4668915,27.622894 31.1427067,28.2866092 30.6863709,28.8984599 C31.1085749,29.1331968 31.4640279,29.3182207 31.7819528,29.4517663 L31.9670262,29.5237432 L32.1064637,29.3923049 C34.394231,27.2054314 35.4968202,25.7618719 35.8935002,24.1485492 Z M26.7966438,25.1854461 C26.884662,25.2790993 27.0340153,25.3618846 27.2770253,25.4435527 C27.325819,25.4599507 27.3776323,25.4761191 27.4367197,25.4934558 L27.5313381,25.5205119 L27.9974917,25.6509302 C28.5059033,25.8043014 28.785989,25.9562221 29.0411579,26.3243372 C29.2035733,26.558643 29.3423882,26.8052612 29.4739081,27.0819842 C29.5131294,27.1645072 29.5510552,27.2482261 29.5904265,27.3386996 L29.6509103,27.4801706 L29.8659529,27.996465 C29.897506,28.0691713 29.9271389,28.1345763 29.9553731,28.1935542 C30.3009872,27.6955923 30.5514843,27.1541836 30.7167212,26.552332 L26.7966438,25.1854461 Z M30.5307419,20.7564839 L26.1189066,23.3366458 C26.1753551,23.5589991 26.2310703,23.7631327 26.2854518,23.9483576 L30.9068696,25.5611096 C31.0612462,24.2568377 30.9112068,22.6927532 30.5307419,20.7564839 Z M36.0730262,17.5138894 L31.4430262,20.2218894 L31.5772724,20.9040474 C31.9161971,22.7174885 32.0539402,24.2397083 31.9234164,25.5511545 L36.0682704,22.8369823 L36.0706893,22.7554751 L36.0706893,22.7554751 L36.0732117,22.5472703 L36.0730262,17.5138894 Z M24.7129837,16.4224815 L22.7083013,17.7476776 C22.7144851,17.7557179 22.7206918,17.7637716 22.726925,17.7718441 C23.2805973,18.4888925 23.9788556,19.568295 24.8253028,21.0139931 L25.3660262,21.9538894 L25.85787,22.2134603 L25.8800262,22.3158894 L27.4430262,21.4018894 L27.0026854,20.6363423 C26.0217862,18.9178982 25.2588736,17.5140878 24.7129837,16.4224815 Z M43.1380262,13.3827432 L37.0730262,16.9298894 L37.0730262,22.1778894 L39.2319871,20.7632513 C39.4878964,20.3740407 39.8369791,20.108674 40.4562382,19.7416347 L40.6622615,19.6213467 L41.0264077,19.4035794 C41.3229106,19.2166523 41.4356845,19.1102833 41.4747977,19.0129758 C41.4697909,19.025432 41.464678,18.8759552 41.4522402,18.6101871 L41.4464402,18.4892996 L41.3554908,16.9846442 C41.3158483,16.225826 41.3440963,15.9926203 41.486045,15.6671807 C41.8002107,14.9469069 42.2926177,14.2671239 42.9413709,13.5851998 L43.1380262,13.3827432 Z M21.8720262,18.2988894 L20.3440262,19.3088894 L23.7006704,21.0761849 C23.0533387,19.9897634 22.5055627,19.1458118 22.0592829,18.5464526 L21.8720262,18.2988894 Z M29.456,13.291 L25.5534685,15.8670937 C26.1659773,17.1015253 27.0829056,18.7779847 28.302664,20.8924651 L28.3050262,20.8978894 L31.0670262,19.2828894 L30.9016713,17.8555954 C30.694799,16.0275198 30.5538155,14.6029142 30.478638,13.5793909 L29.456,13.291 Z M15.4461753,14.861602 L13.8880262,15.9058894 L19.3350262,18.7768894 L21.2904019,17.4885032 C21.2424165,17.4184328 21.1914935,17.3436313 21.1369134,17.2630918 L20.4010709,16.1728922 C19.4625337,14.8046862 18.9364159,14.2070614 18.5970061,14.1454857 C17.7951396,14.0000112 16.7596292,14.247223 15.4461753,14.861602 Z M31.7540262,7.82388938 L31.7150344,8.05713471 C31.4609145,9.64596071 31.3521962,11.0729701 31.4278998,12.7251445 L31.4320262,12.8098894 L36.7090598,14.2999161 L36.4373635,15.2622992 L31.5039513,13.8684098 C31.5767867,14.7680421 31.6937792,15.9400988 31.8548833,17.3832618 L32.0100262,18.7318894 L36.2300262,16.2638894 L36.3762131,15.9806294 C36.8791397,14.9837639 37.1767652,14.2887759 37.2632912,13.9210377 L37.3393252,13.585952 C37.4534589,13.059084 37.5099338,12.6577882 37.5880771,11.8950192 L37.638198,11.3900846 C37.6834292,10.9241999 37.7271594,10.5887602 37.7910735,10.3091295 L31.7540262,7.82388938 Z M22.4238049,10.180158 L18.0661216,13.1037896 C18.3116449,13.1010869 18.547708,13.1202187 18.7755122,13.1615469 C19.5026378,13.293462 20.0647667,13.9064379 21.212401,15.5865496 L22.1230262,16.9348894 L24.2751942,15.5132519 C24.2252476,15.4044349 24.1784555,15.3001513 24.1348162,15.2003967 L23.9817845,14.8397128 C23.7430992,14.2598345 23.5310238,13.6663045 23.3043107,12.9613366 L22.6150278,10.7373062 L22.5885188,10.6555478 C22.5317946,10.4833367 22.4770618,10.3251884 22.4238049,10.180158 Z M38.7336748,10.6955239 C38.7117604,10.8162637 38.6920537,10.9541855 38.6728426,11.1165161 L38.5346403,12.4452897 C38.4584699,13.1112731 38.386809,13.5121449 38.2367088,14.1500755 C38.1688983,14.4382721 38.019311,14.83791 37.7865295,15.3551909 L42.8530262,12.3918894 L38.7336748,10.6955239 Z M17.6830262,6.21088938 L7.072,12.315 L12.6520023,15.2547427 C13.4997492,14.7340283 14.2718047,14.304573 14.9801021,13.9699722 L22.0046374,9.2574562 C21.9495038,9.1678915 21.8944326,9.09160526 21.8386912,9.02725476 C20.6198027,7.62011296 19.3235335,6.72717152 17.9478629,6.33509266 L17.6716695,6.26335111 L17.6830262,6.21088938 Z M28.15,6.34 L23.2767896,9.60820401 C23.3622665,9.82640508 23.4484605,10.0698858 23.5383204,10.3426951 L24.144031,12.3008632 C24.4075813,13.1443009 24.6408982,13.8137829 24.9065121,14.4590831 L25.0509847,14.7996033 L25.1210262,14.9558894 L29.287301,12.2046329 L30.4200262,12.5238894 L30.4096422,12.2031189 C30.3809929,10.8960715 30.4661726,9.70490251 30.6451808,8.44426627 L30.7275848,7.89920014 C30.7437845,7.79791524 30.7728008,7.62552368 30.8053024,7.4342149 L28.15,6.34 Z" id="Combined-Shape"></path>
        </g>
        <g id="Group-2" transform="translate(11.000000, 0.000000)" fill="#000000" fill-rule="nonzero">
            <path d="M32.65,4.41 L30.24932,0.404724485 L23.8990663,1.09692725 L22.473,4.386 L17.8831784,6.59915381 L16.228,9.82 L11.4895047,11.440187 L10.644,16.085 L5.14591431,16.9901809 L0.864808939,24.0637875 L31.1533058,38.7659266 L51.9397548,21.9278078 L47.7918137,14.7476645 L44.448,14.322 L41.8357987,9.5439494 L38.149,9.543 L36.2462563,6.63134016 L32.65,4.41 Z M25.957,3.89 L28.664,3.595 L30.4536712,6.58023356 L34.102,8.833 L36.5269173,12.5439494 L40.056,12.543 L42.5502571,17.1055456 L45.938,17.535 L48.06,21.209 L30.747,35.234 L5.135,22.801 L6.996,19.726 L13.2175257,18.7018179 L14.125,13.709 L18.3453145,12.2675802 L20.092,8.864 L24.7817815,6.60462569 L25.957,3.89 Z" id="Path-7"></path>
            <polygon id="Path-16" points="25.4928111 1.91551809 31.4928111 36.9155181 30.5071889 37.0844819 24.5071889 2.08448191"></polygon>
            <polygon id="Path-18" points="45.7055473 16.595899 46.2944527 17.404101 29.5971596 29.5707674 6.80509901 19.9232453 7.19490099 19.0023466 29.465 28.428"></polygon>
            <polygon id="Path-19" points="39.6792039 11.616477 40.3207961 12.383523 28.0867574 22.6166304 13.7343182 13.6141869 14.2656818 12.7670431 28.002 21.383"></polygon>
            <polygon id="Path-20" points="19.2822069 8.58725397 27.745 14.374 34.6805526 8.61535297 35.3194474 9.38464703 27.8046139 15.6256786 18.7177931 9.41274603"></polygon>
        </g>
    </g>
</svg>