<?xml version="1.0" encoding="UTF-8"?>
<svg width="64px" height="64px" viewBox="0 0 64 64" version="1.1" xmlns="http://www.w3.org/2000/svg" xmlns:xlink="http://www.w3.org/1999/xlink">
    <title>tool_texture_rocky</title>
    <g id="tool_texture_rocky" stroke="none" stroke-width="1" fill="none" fill-rule="evenodd">
        <path d="M1.53137469,41.954986 L27.5521252,60.1790997 L61.4115007,34.1984573 C58.9215524,33.2349802 57.1129773,32.5251403 55.9857752,32.0689376 M46.6968241,23.4348987 C42.7990441,23.94385 41.9364494,22.1508161 40.7191549,21.1285506 C38.0481086,18.8854466 39.2597824,15.6501616 34.409272,15.6501616 C29.5587616,15.6501616 29.0052383,20.9464532 27.1136071,23.94385 C25.0119915,27.2739788 23.533714,27.7832462 19.9756094,30.1850562" id="Shape" stroke="#000000" stroke-width="3"></path>
        <path d="M12.0873228,49.6588729 C23.6365728,49.6588729 23.36835,38.7524653 27.4198938,35.3245405 C31.4714377,31.8966156 34.0314043,33.2334831 35.9960393,38.6802121 C37.305796,42.3113647 41.625714,44.0491924 48.9557936,43.8936952" id="Path-54" stroke="#000000" stroke-width="3"></path>
        <path d="M2.86655435,42.3612877 C11.2286812,38.4220294 8.61462809,30.9381235 12.0873228,27.5101987 C15.5600175,24.0822738 19.3092211,26.3021079 22.0857654,32.0124604 C23.936795,35.8193621 25.2525393,37.3777544 26.0329985,36.6876373" id="Path-54-Copy" stroke="#000000" stroke-width="3"></path>
        <path d="M34.8680544,38.6802121 C41.8996307,35.3927579 39.5402815,27.4527537 43.8684375,24.7508609 C48.1965936,22.048968 51.3314403,23.5444805 54.0154331,28.897936 C55.8047617,32.4669064 57.3081486,34.0538853 58.5255939,33.6588729" id="Path-54-Copy-2" stroke="#000000" stroke-width="3"></path>
    </g>
</svg>