G04*
G04 #@! TF.GenerationSoftware,Altium Limited,Altium Designer,19.0.14 (431)*
G04*
G04 Layer_Color=65535*
%FSLAX44Y44*%
%MOMM*%
G71*
G01*
G75*
%ADD10C,0.1000*%
%ADD11C,0.0900*%
%ADD12C,0.2000*%
%ADD13C,0.1524*%
%ADD14C,0.1500*%
%ADD15C,0.1540*%
D10*
X75100Y444500D02*
G03*
X75100Y444500I-37000J0D01*
G01*
X633900D02*
G03*
X633900Y444500I-37000J0D01*
G01*
Y150000D02*
G03*
X633900Y150000I-37000J0D01*
G01*
D11*
X610870Y0D02*
Y107950D01*
X20320D02*
X610870D01*
X20320Y0D02*
Y107950D01*
Y0D02*
X610870D01*
X145000Y344424D02*
X147286Y342138D01*
X145000Y344424D02*
X147286Y342138D01*
X142714D02*
X145000Y344424D01*
X142714Y342138D02*
X147286D01*
X88900Y149250D02*
Y308000D01*
X-38100Y149250D02*
X88900D01*
X-38100D02*
Y308000D01*
X88900D01*
X143764Y407030D02*
X146050Y404744D01*
X143764Y407030D02*
X146050Y404744D01*
X148336Y407030D01*
X143764D02*
X148336D01*
D12*
X105664Y358140D02*
X125984D01*
Y322580D02*
Y358140D01*
X105664Y322580D02*
X125984D01*
X105664D02*
Y358140D01*
X154906Y326390D02*
Y358902D01*
X135348Y326390D02*
X154906D01*
X135348Y358902D02*
X154906D01*
X135348Y326390D02*
Y358902D01*
X105664Y388488D02*
X125984D01*
X105664D02*
Y424048D01*
X125984D01*
Y388488D02*
Y424048D01*
X250698Y194818D02*
Y410718D01*
Y194818D02*
X485902D01*
Y429768D01*
X269748D02*
X485902D01*
X250698Y410718D02*
X269748Y429768D01*
X136144Y390266D02*
Y422778D01*
X155702D01*
X136144Y390266D02*
X155702D01*
Y422778D01*
X43182Y294598D02*
Y284600D01*
Y294598D02*
X49847Y284600D01*
Y294598D02*
Y284600D01*
X59750Y292217D02*
X59274Y293170D01*
X58322Y294122D01*
X57370Y294598D01*
X55465D01*
X54513Y294122D01*
X53561Y293170D01*
X53085Y292217D01*
X52609Y290789D01*
Y288409D01*
X53085Y286980D01*
X53561Y286028D01*
X54513Y285076D01*
X55465Y284600D01*
X57370D01*
X58322Y285076D01*
X59274Y286028D01*
X59750Y286980D01*
X48562Y218398D02*
Y208400D01*
X45229Y218398D02*
X51894D01*
X53085D02*
X59750Y208400D01*
Y218398D02*
X53085Y208400D01*
X33756Y269198D02*
X37564Y259200D01*
X41373Y269198D02*
X37564Y259200D01*
X49800Y266817D02*
X49324Y267770D01*
X48372Y268722D01*
X47419Y269198D01*
X45515D01*
X44563Y268722D01*
X43611Y267770D01*
X43134Y266817D01*
X42658Y265389D01*
Y263009D01*
X43134Y261580D01*
X43611Y260628D01*
X44563Y259676D01*
X45515Y259200D01*
X47419D01*
X48372Y259676D01*
X49324Y260628D01*
X49800Y261580D01*
X59750Y266817D02*
X59274Y267770D01*
X58322Y268722D01*
X57370Y269198D01*
X55465D01*
X54513Y268722D01*
X53561Y267770D01*
X53085Y266817D01*
X52609Y265389D01*
Y263009D01*
X53085Y261580D01*
X53561Y260628D01*
X54513Y259676D01*
X55465Y259200D01*
X57370D01*
X58322Y259676D01*
X59274Y260628D01*
X59750Y261580D01*
X36231Y243798D02*
X41468D01*
X38612Y239989D01*
X40040D01*
X40992Y239513D01*
X41468Y239037D01*
X41944Y237609D01*
Y236656D01*
X41468Y235228D01*
X40516Y234276D01*
X39088Y233800D01*
X37659D01*
X36231Y234276D01*
X35755Y234752D01*
X35279Y235704D01*
X44182Y243798D02*
X47991Y233800D01*
X51799Y243798D02*
X47991Y233800D01*
X54037Y243798D02*
X59274D01*
X56417Y239989D01*
X57846D01*
X58798Y239513D01*
X59274Y239037D01*
X59750Y237609D01*
Y236656D01*
X59274Y235228D01*
X58322Y234276D01*
X56894Y233800D01*
X55465D01*
X54037Y234276D01*
X53561Y234752D01*
X53085Y235704D01*
X44182Y192998D02*
Y183000D01*
Y192998D02*
X48467D01*
X49895Y192522D01*
X50371Y192046D01*
X50847Y191094D01*
Y190141D01*
X50371Y189189D01*
X49895Y188713D01*
X48467Y188237D01*
X44182D01*
X47515D02*
X50847Y183000D01*
X53085Y192998D02*
X59750Y183000D01*
Y192998D02*
X53085Y183000D01*
X41373Y165217D02*
X40897Y166170D01*
X39945Y167122D01*
X38993Y167598D01*
X37088D01*
X36136Y167122D01*
X35184Y166170D01*
X34708Y165217D01*
X34232Y163789D01*
Y161409D01*
X34708Y159980D01*
X35184Y159028D01*
X36136Y158076D01*
X37088Y157600D01*
X38993D01*
X39945Y158076D01*
X40897Y159028D01*
X41373Y159980D01*
Y161409D01*
X38993D02*
X41373D01*
X43658Y167598D02*
Y157600D01*
Y167598D02*
X50323Y157600D01*
Y167598D02*
Y157600D01*
X53085Y167598D02*
Y157600D01*
Y167598D02*
X56417D01*
X57846Y167122D01*
X58798Y166170D01*
X59274Y165217D01*
X59750Y163789D01*
Y161409D01*
X59274Y159980D01*
X58798Y159028D01*
X57846Y158076D01*
X56417Y157600D01*
X53085D01*
D13*
X15240Y389332D02*
X86360D01*
X15240Y318212D02*
Y389332D01*
Y318212D02*
X86360D01*
Y389332D01*
X622300Y194310D02*
Y402590D01*
X533400Y194310D02*
Y288290D01*
X528320D02*
X533400D01*
X528320D02*
Y308610D01*
X533400D01*
Y402590D01*
X534670Y194310D02*
X622300D01*
X534670Y402590D02*
X622300D01*
D14*
X287267Y113260D02*
Y116259D01*
X286934Y117259D01*
X286601Y117592D01*
X285934Y117926D01*
X284935D01*
X284268Y117592D01*
X283935Y117259D01*
X283601Y116259D01*
Y113260D01*
X290600D01*
X285268Y119825D02*
X284935D01*
X284268Y120159D01*
X283935Y120492D01*
X283601Y121158D01*
Y122491D01*
X283935Y123158D01*
X284268Y123491D01*
X284935Y123824D01*
X285601D01*
X286268Y123491D01*
X287267Y122825D01*
X290600Y119492D01*
Y124158D01*
X283601Y127724D02*
X283935Y126724D01*
X284935Y126057D01*
X286601Y125724D01*
X287601D01*
X289267Y126057D01*
X290267Y126724D01*
X290600Y127724D01*
Y128390D01*
X290267Y129390D01*
X289267Y130056D01*
X287601Y130390D01*
X286601D01*
X284935Y130056D01*
X283935Y129390D01*
X283601Y128390D01*
Y127724D01*
X439667Y113260D02*
Y116259D01*
X439334Y117259D01*
X439001Y117592D01*
X438334Y117926D01*
X437335D01*
X436668Y117592D01*
X436335Y117259D01*
X436002Y116259D01*
Y113260D01*
X443000D01*
X437668Y119825D02*
X437335D01*
X436668Y120159D01*
X436335Y120492D01*
X436002Y121158D01*
Y122491D01*
X436335Y123158D01*
X436668Y123491D01*
X437335Y123824D01*
X438001D01*
X438668Y123491D01*
X439667Y122825D01*
X443000Y119492D01*
Y124158D01*
X436002Y127390D02*
X436335Y126390D01*
X437001Y126057D01*
X437668D01*
X438334Y126390D01*
X438668Y127057D01*
X439001Y128390D01*
X439334Y129390D01*
X440001Y130056D01*
X440667Y130390D01*
X441667D01*
X442333Y130056D01*
X442667Y129723D01*
X443000Y128723D01*
Y127390D01*
X442667Y126390D01*
X442333Y126057D01*
X441667Y125724D01*
X440667D01*
X440001Y126057D01*
X439334Y126724D01*
X439001Y127724D01*
X438668Y129057D01*
X438334Y129723D01*
X437668Y130056D01*
X437001D01*
X436335Y129723D01*
X436002Y128723D01*
Y127390D01*
X312667Y113260D02*
Y116259D01*
X312334Y117259D01*
X312001Y117592D01*
X311334Y117926D01*
X310335D01*
X309668Y117592D01*
X309335Y117259D01*
X309002Y116259D01*
Y113260D01*
X316000D01*
X310668Y119825D02*
X310335D01*
X309668Y120159D01*
X309335Y120492D01*
X309002Y121158D01*
Y122491D01*
X309335Y123158D01*
X309668Y123491D01*
X310335Y123824D01*
X311001D01*
X311668Y123491D01*
X312667Y122825D01*
X316000Y119492D01*
Y124158D01*
X310335Y125724D02*
X310001Y126390D01*
X309002Y127390D01*
X316000D01*
X134867Y113260D02*
Y116259D01*
X134534Y117259D01*
X134201Y117592D01*
X133534Y117926D01*
X132535D01*
X131868Y117592D01*
X131535Y117259D01*
X131201Y116259D01*
Y113260D01*
X138200D01*
X132535Y119492D02*
X132201Y120159D01*
X131201Y121158D01*
X138200D01*
X132535Y124624D02*
X132201Y125291D01*
X131201Y126291D01*
X138200D01*
X211067Y113260D02*
Y116259D01*
X210734Y117259D01*
X210401Y117592D01*
X209734Y117926D01*
X208735D01*
X208068Y117592D01*
X207735Y117259D01*
X207402Y116259D01*
Y113260D01*
X214400D01*
X208735Y119492D02*
X208401Y120159D01*
X207402Y121158D01*
X214400D01*
X208401Y128623D02*
X207735Y128290D01*
X207402Y127290D01*
Y126624D01*
X207735Y125624D01*
X208735Y124958D01*
X210401Y124624D01*
X212067D01*
X213400Y124958D01*
X214067Y125624D01*
X214400Y126624D01*
Y126957D01*
X214067Y127957D01*
X213400Y128623D01*
X212400Y128957D01*
X212067D01*
X211067Y128623D01*
X210401Y127957D01*
X210068Y126957D01*
Y126624D01*
X210401Y125624D01*
X211067Y124958D01*
X212067Y124624D01*
X33267Y113260D02*
Y116259D01*
X32934Y117259D01*
X32601Y117592D01*
X31934Y117926D01*
X30935D01*
X30268Y117592D01*
X29935Y117259D01*
X29602Y116259D01*
Y113260D01*
X36600D01*
X29602Y123491D02*
Y120159D01*
X32601Y119825D01*
X32268Y120159D01*
X31934Y121158D01*
Y122158D01*
X32268Y123158D01*
X32934Y123824D01*
X33934Y124158D01*
X34601D01*
X35600Y123824D01*
X36267Y123158D01*
X36600Y122158D01*
Y121158D01*
X36267Y120159D01*
X35933Y119825D01*
X35267Y119492D01*
X541267Y113260D02*
Y116259D01*
X540934Y117259D01*
X540601Y117592D01*
X539934Y117926D01*
X538935D01*
X538268Y117592D01*
X537935Y117259D01*
X537602Y116259D01*
Y113260D01*
X544600D01*
X537602Y120159D02*
Y123824D01*
X540268Y121825D01*
Y122825D01*
X540601Y123491D01*
X540934Y123824D01*
X541934Y124158D01*
X542601D01*
X543600Y123824D01*
X544267Y123158D01*
X544600Y122158D01*
Y121158D01*
X544267Y120159D01*
X543933Y119825D01*
X543267Y119492D01*
X537602Y129057D02*
X542267Y125724D01*
Y130723D01*
X537602Y129057D02*
X544600D01*
X185667Y113260D02*
Y116259D01*
X185334Y117259D01*
X185001Y117592D01*
X184334Y117926D01*
X183335D01*
X182668Y117592D01*
X182335Y117259D01*
X182001Y116259D01*
Y113260D01*
X189000D01*
X183335Y119492D02*
X183001Y120159D01*
X182001Y121158D01*
X189000D01*
X182001Y127957D02*
X186667Y124624D01*
Y129623D01*
X182001Y127957D02*
X189000D01*
X84067Y113260D02*
Y116259D01*
X83734Y117259D01*
X83401Y117592D01*
X82734Y117926D01*
X81735D01*
X81068Y117592D01*
X80735Y117259D01*
X80401Y116259D01*
Y113260D01*
X87400D01*
X80401Y121158D02*
X80735Y120159D01*
X81401Y119825D01*
X82068D01*
X82734Y120159D01*
X83068Y120825D01*
X83401Y122158D01*
X83734Y123158D01*
X84401Y123824D01*
X85067Y124158D01*
X86067D01*
X86734Y123824D01*
X87067Y123491D01*
X87400Y122491D01*
Y121158D01*
X87067Y120159D01*
X86734Y119825D01*
X86067Y119492D01*
X85067D01*
X84401Y119825D01*
X83734Y120492D01*
X83401Y121492D01*
X83068Y122825D01*
X82734Y123491D01*
X82068Y123824D01*
X81401D01*
X80735Y123491D01*
X80401Y122491D01*
Y121158D01*
X363467Y113260D02*
Y116259D01*
X363134Y117259D01*
X362801Y117592D01*
X362134Y117926D01*
X361135D01*
X360468Y117592D01*
X360135Y117259D01*
X359801Y116259D01*
Y113260D01*
X366800D01*
X361468Y119825D02*
X361135D01*
X360468Y120159D01*
X360135Y120492D01*
X359801Y121158D01*
Y122491D01*
X360135Y123158D01*
X360468Y123491D01*
X361135Y123824D01*
X361801D01*
X362468Y123491D01*
X363467Y122825D01*
X366800Y119492D01*
Y124158D01*
X359801Y129723D02*
Y126390D01*
X362801Y126057D01*
X362468Y126390D01*
X362134Y127390D01*
Y128390D01*
X362468Y129390D01*
X363134Y130056D01*
X364134Y130390D01*
X364800D01*
X365800Y130056D01*
X366467Y129390D01*
X366800Y128390D01*
Y127390D01*
X366467Y126390D01*
X366133Y126057D01*
X365467Y125724D01*
X388867Y113260D02*
Y116259D01*
X388534Y117259D01*
X388201Y117592D01*
X387534Y117926D01*
X386535D01*
X385868Y117592D01*
X385535Y117259D01*
X385201Y116259D01*
Y113260D01*
X392200D01*
X386868Y119825D02*
X386535D01*
X385868Y120159D01*
X385535Y120492D01*
X385201Y121158D01*
Y122491D01*
X385535Y123158D01*
X385868Y123491D01*
X386535Y123824D01*
X387201D01*
X387868Y123491D01*
X388867Y122825D01*
X392200Y119492D01*
Y124158D01*
X386201Y129723D02*
X385535Y129390D01*
X385201Y128390D01*
Y127724D01*
X385535Y126724D01*
X386535Y126057D01*
X388201Y125724D01*
X389867D01*
X391200Y126057D01*
X391867Y126724D01*
X392200Y127724D01*
Y128057D01*
X391867Y129057D01*
X391200Y129723D01*
X390201Y130056D01*
X389867D01*
X388867Y129723D01*
X388201Y129057D01*
X387868Y128057D01*
Y127724D01*
X388201Y126724D01*
X388867Y126057D01*
X389867Y125724D01*
X261867Y113260D02*
Y116259D01*
X261534Y117259D01*
X261201Y117592D01*
X260534Y117926D01*
X259535D01*
X258868Y117592D01*
X258535Y117259D01*
X258202Y116259D01*
Y113260D01*
X265200D01*
X259535Y119492D02*
X259201Y120159D01*
X258202Y121158D01*
X265200D01*
X260534Y128957D02*
X261534Y128623D01*
X262201Y127957D01*
X262534Y126957D01*
Y126624D01*
X262201Y125624D01*
X261534Y124958D01*
X260534Y124624D01*
X260201D01*
X259201Y124958D01*
X258535Y125624D01*
X258202Y126624D01*
Y126957D01*
X258535Y127957D01*
X259201Y128623D01*
X260534Y128957D01*
X262201D01*
X263867Y128623D01*
X264867Y127957D01*
X265200Y126957D01*
Y126291D01*
X264867Y125291D01*
X264200Y124958D01*
X465067Y113260D02*
Y116259D01*
X464734Y117259D01*
X464401Y117592D01*
X463734Y117926D01*
X462735D01*
X462068Y117592D01*
X461735Y117259D01*
X461401Y116259D01*
Y113260D01*
X468400D01*
X463068Y119825D02*
X462735D01*
X462068Y120159D01*
X461735Y120492D01*
X461401Y121158D01*
Y122491D01*
X461735Y123158D01*
X462068Y123491D01*
X462735Y123824D01*
X463401D01*
X464068Y123491D01*
X465067Y122825D01*
X468400Y119492D01*
Y124158D01*
X463734Y130056D02*
X464734Y129723D01*
X465401Y129057D01*
X465734Y128057D01*
Y127724D01*
X465401Y126724D01*
X464734Y126057D01*
X463734Y125724D01*
X463401D01*
X462401Y126057D01*
X461735Y126724D01*
X461401Y127724D01*
Y128057D01*
X461735Y129057D01*
X462401Y129723D01*
X463734Y130056D01*
X465401D01*
X467067Y129723D01*
X468067Y129057D01*
X468400Y128057D01*
Y127390D01*
X468067Y126390D01*
X467400Y126057D01*
X68729Y338861D02*
X68396Y339527D01*
X67729Y340194D01*
X67063Y340527D01*
X65729D01*
X65063Y340194D01*
X64397Y339527D01*
X64063Y338861D01*
X63730Y337861D01*
Y336194D01*
X64063Y335195D01*
X64397Y334528D01*
X65063Y333862D01*
X65729Y333528D01*
X67063D01*
X67729Y333862D01*
X68396Y334528D01*
X68729Y335195D01*
Y336194D01*
X67063D02*
X68729D01*
X70329Y340527D02*
Y333528D01*
Y340527D02*
X74994Y333528D01*
Y340527D02*
Y333528D01*
X76927Y340527D02*
Y333528D01*
Y340527D02*
X79260D01*
X80260Y340194D01*
X80926Y339527D01*
X81260Y338861D01*
X81593Y337861D01*
Y336194D01*
X81260Y335195D01*
X80926Y334528D01*
X80260Y333862D01*
X79260Y333528D01*
X76927D01*
X160267Y113260D02*
Y116259D01*
X159934Y117259D01*
X159601Y117592D01*
X158934Y117926D01*
X157935D01*
X157268Y117592D01*
X156935Y117259D01*
X156601Y116259D01*
Y113260D01*
X163600D01*
X157935Y119492D02*
X157601Y120159D01*
X156601Y121158D01*
X163600D01*
X158268Y124958D02*
X157935D01*
X157268Y125291D01*
X156935Y125624D01*
X156601Y126291D01*
Y127624D01*
X156935Y128290D01*
X157268Y128623D01*
X157935Y128957D01*
X158601D01*
X159268Y128623D01*
X160267Y127957D01*
X163600Y124624D01*
Y129290D01*
X58667Y113260D02*
Y116259D01*
X58334Y117259D01*
X58001Y117592D01*
X57334Y117926D01*
X56335D01*
X55668Y117592D01*
X55335Y117259D01*
X55002Y116259D01*
Y113260D01*
X62000D01*
X56001Y123491D02*
X55335Y123158D01*
X55002Y122158D01*
Y121492D01*
X55335Y120492D01*
X56335Y119825D01*
X58001Y119492D01*
X59667D01*
X61000Y119825D01*
X61667Y120492D01*
X62000Y121492D01*
Y121825D01*
X61667Y122825D01*
X61000Y123491D01*
X60001Y123824D01*
X59667D01*
X58667Y123491D01*
X58001Y122825D01*
X57668Y121825D01*
Y121492D01*
X58001Y120492D01*
X58667Y119825D01*
X59667Y119492D01*
X559047Y113260D02*
Y116259D01*
X558714Y117259D01*
X558381Y117592D01*
X557714Y117926D01*
X556715D01*
X556048Y117592D01*
X555715Y117259D01*
X555382Y116259D01*
Y113260D01*
X562380D01*
X555382Y120159D02*
Y123824D01*
X558048Y121825D01*
Y122825D01*
X558381Y123491D01*
X558714Y123824D01*
X559714Y124158D01*
X560381D01*
X561380Y123824D01*
X562047Y123158D01*
X562380Y122158D01*
Y121158D01*
X562047Y120159D01*
X561713Y119825D01*
X561047Y119492D01*
X555382Y130390D02*
X562380Y127057D01*
X555382Y125724D02*
Y130390D01*
X68729Y373862D02*
X68396Y374529D01*
X67729Y375195D01*
X67063Y375528D01*
X65729D01*
X65063Y375195D01*
X64397Y374529D01*
X64063Y373862D01*
X63730Y372862D01*
Y371196D01*
X64063Y370196D01*
X64397Y369530D01*
X65063Y368863D01*
X65729Y368530D01*
X67063D01*
X67729Y368863D01*
X68396Y369530D01*
X68729Y370196D01*
X70695Y375528D02*
Y368530D01*
X74694D01*
X75461Y375528D02*
Y368530D01*
X80126Y375528D02*
X75461Y370863D01*
X77127Y372529D02*
X80126Y368530D01*
X236467Y113260D02*
Y116259D01*
X236134Y117259D01*
X235801Y117592D01*
X235134Y117926D01*
X234135D01*
X233468Y117592D01*
X233135Y117259D01*
X232801Y116259D01*
Y113260D01*
X239800D01*
X234135Y119492D02*
X233801Y120159D01*
X232801Y121158D01*
X239800D01*
X232801Y126291D02*
X233135Y125291D01*
X233801Y124958D01*
X234468D01*
X235134Y125291D01*
X235468Y125957D01*
X235801Y127290D01*
X236134Y128290D01*
X236801Y128957D01*
X237467Y129290D01*
X238467D01*
X239133Y128957D01*
X239467Y128623D01*
X239800Y127624D01*
Y126291D01*
X239467Y125291D01*
X239133Y124958D01*
X238467Y124624D01*
X237467D01*
X236801Y124958D01*
X236134Y125624D01*
X235801Y126624D01*
X235468Y127957D01*
X235134Y128623D01*
X234468Y128957D01*
X233801D01*
X233135Y128623D01*
X232801Y127624D01*
Y126291D01*
X515867Y113260D02*
Y116259D01*
X515534Y117259D01*
X515201Y117592D01*
X514534Y117926D01*
X513535D01*
X512868Y117592D01*
X512535Y117259D01*
X512201Y116259D01*
Y113260D01*
X519200D01*
X512201Y120159D02*
Y123824D01*
X514868Y121825D01*
Y122825D01*
X515201Y123491D01*
X515534Y123824D01*
X516534Y124158D01*
X517201D01*
X518200Y123824D01*
X518867Y123158D01*
X519200Y122158D01*
Y121158D01*
X518867Y120159D01*
X518534Y119825D01*
X517867Y119492D01*
X512201Y126390D02*
Y130056D01*
X514868Y128057D01*
Y129057D01*
X515201Y129723D01*
X515534Y130056D01*
X516534Y130390D01*
X517201D01*
X518200Y130056D01*
X518867Y129390D01*
X519200Y128390D01*
Y127390D01*
X518867Y126390D01*
X518534Y126057D01*
X517867Y125724D01*
X414267Y113260D02*
Y116259D01*
X413934Y117259D01*
X413601Y117592D01*
X412934Y117926D01*
X411935D01*
X411268Y117592D01*
X410935Y117259D01*
X410602Y116259D01*
Y113260D01*
X417600D01*
X412268Y119825D02*
X411935D01*
X411268Y120159D01*
X410935Y120492D01*
X410602Y121158D01*
Y122491D01*
X410935Y123158D01*
X411268Y123491D01*
X411935Y123824D01*
X412601D01*
X413268Y123491D01*
X414267Y122825D01*
X417600Y119492D01*
Y124158D01*
X410602Y130390D02*
X417600Y127057D01*
X410602Y125724D02*
Y130390D01*
X338067Y113260D02*
Y116259D01*
X337734Y117259D01*
X337401Y117592D01*
X336734Y117926D01*
X335735D01*
X335068Y117592D01*
X334735Y117259D01*
X334402Y116259D01*
Y113260D01*
X341400D01*
X336068Y119825D02*
X335735D01*
X335068Y120159D01*
X334735Y120492D01*
X334402Y121158D01*
Y122491D01*
X334735Y123158D01*
X335068Y123491D01*
X335735Y123824D01*
X336401D01*
X337068Y123491D01*
X338067Y122825D01*
X341400Y119492D01*
Y124158D01*
X334402Y129057D02*
X339067Y125724D01*
Y130723D01*
X334402Y129057D02*
X341400D01*
X109467Y113260D02*
Y116259D01*
X109134Y117259D01*
X108801Y117592D01*
X108134Y117926D01*
X107135D01*
X106468Y117592D01*
X106135Y117259D01*
X105801Y116259D01*
Y113260D01*
X112800D01*
X108134Y123824D02*
X109134Y123491D01*
X109801Y122825D01*
X110134Y121825D01*
Y121492D01*
X109801Y120492D01*
X109134Y119825D01*
X108134Y119492D01*
X107801D01*
X106801Y119825D01*
X106135Y120492D01*
X105801Y121492D01*
Y121825D01*
X106135Y122825D01*
X106801Y123491D01*
X108134Y123824D01*
X109801D01*
X111467Y123491D01*
X112467Y122825D01*
X112800Y121825D01*
Y121158D01*
X112467Y120159D01*
X111800Y119825D01*
X490467Y113260D02*
Y116259D01*
X490134Y117259D01*
X489801Y117592D01*
X489134Y117926D01*
X488135D01*
X487468Y117592D01*
X487135Y117259D01*
X486801Y116259D01*
Y113260D01*
X493800D01*
X486801Y120159D02*
Y123824D01*
X489468Y121825D01*
Y122825D01*
X489801Y123491D01*
X490134Y123824D01*
X491134Y124158D01*
X491800D01*
X492800Y123824D01*
X493467Y123158D01*
X493800Y122158D01*
Y121158D01*
X493467Y120159D01*
X493134Y119825D01*
X492467Y119492D01*
X488135Y125724D02*
X487801Y126390D01*
X486801Y127390D01*
X493800D01*
D15*
X599754Y101437D02*
X596422D01*
X598088D01*
Y93106D01*
X596422Y91440D01*
X594756D01*
X593090Y93106D01*
X603087Y91440D02*
X606419D01*
X604753D01*
Y101437D01*
X603087Y99771D01*
X466090Y422747D02*
Y414416D01*
X467756Y412750D01*
X471088D01*
X472755Y414416D01*
Y422747D01*
X476087Y412750D02*
X479419D01*
X477753D01*
Y422747D01*
X476087Y421081D01*
X105664Y429768D02*
Y439765D01*
X110662D01*
X112329Y438099D01*
Y434766D01*
X110662Y433100D01*
X105664D01*
X108996D02*
X112329Y429768D01*
X122325D02*
X115661D01*
X122325Y436432D01*
Y438099D01*
X120659Y439765D01*
X117327D01*
X115661Y438099D01*
X105664Y304800D02*
Y314797D01*
X110662D01*
X112329Y313131D01*
Y309798D01*
X110662Y308132D01*
X105664D01*
X108996D02*
X112329Y304800D01*
X115661D02*
X118993D01*
X117327D01*
Y314797D01*
X115661Y313131D01*
X16347Y296866D02*
Y300198D01*
Y298532D01*
X8016D01*
X6350Y300198D01*
Y301864D01*
X8016Y303530D01*
X6350Y288535D02*
X16347D01*
X11348Y293533D01*
Y286869D01*
X546414Y209387D02*
X543082D01*
X544748D01*
Y201056D01*
X543082Y199390D01*
X541416D01*
X539750Y201056D01*
X549747Y207721D02*
X551413Y209387D01*
X554745D01*
X556411Y207721D01*
Y206054D01*
X554745Y204388D01*
X553079D01*
X554745D01*
X556411Y202722D01*
Y201056D01*
X554745Y199390D01*
X551413D01*
X549747Y201056D01*
X31587Y375606D02*
Y378938D01*
Y377272D01*
X23256D01*
X21590Y378938D01*
Y380604D01*
X23256Y382270D01*
X21590Y365609D02*
Y372273D01*
X28254Y365609D01*
X29921D01*
X31587Y367275D01*
Y370607D01*
X29921Y372273D01*
X136144Y439765D02*
Y429768D01*
X141142D01*
X142809Y431434D01*
Y438099D01*
X141142Y439765D01*
X136144D01*
X152805Y429768D02*
X146141D01*
X152805Y436432D01*
Y438099D01*
X151139Y439765D01*
X147807D01*
X146141Y438099D01*
X136144Y314797D02*
Y304800D01*
X141142D01*
X142809Y306466D01*
Y313131D01*
X141142Y314797D01*
X136144D01*
X146141Y304800D02*
X149473D01*
X147807D01*
Y314797D01*
X146141Y313131D01*
M02*
