M48
;Layer_Color=9474304
;FILE_FORMAT=2:5
INCH,LZ
;TYPE=PLATED
T1F00S00C0.02800
T2F00S00C0.03543
T3F00S00C0.03937
;TYPE=NON_PLATED
T4F00S00C0.11811
%
T01
X0057086Y01505
X0110679Y01785
X00385Y01375
T02
X0013Y001
X0023
X0033
X0043
X0053
Y003
X0043
X0033
X0023
X0013
X0063
X0073
X0083
X0093
X0103
X0113
X0123
X0133
X0143
X0153
X0163
X0173
X0183
X0193
X0203
Y001
X0193
X0183
X0173
X0163
X0153
X0143
X0133
X0123
X0113
X0103
X0093
X0083
X0073
X0063
X0213
X0223
Y003
X0213
X018Y0098
Y0108
Y0118
Y0128
Y0138
Y0148
X017
Y0138
Y0128
Y0118
Y0108
Y0098
Y0088
X016
Y0098
X015
Y0088
X014
Y0098
X013
Y0088
X012
Y0098
Y0108
Y0118
Y0128
Y0138
Y0148
X013
X014
X015
X016
Y0158
X017
X015
X014
X013
X012
X011Y0148
Y0138
Y0128
Y0118
Y0108
Y0098
X003Y009376
Y008376
Y007376
Y006376
Y010376
Y011376
X002Y01325
Y014628
T03
X02225Y00975
Y01075
Y01175
Y01275
Y01375
X02325
Y01275
Y01175
Y01075
Y00975
T04
X0235Y0059055
Y0175
X0015
M30
