G04*
G04 #@! TF.GenerationSoftware,Altium Limited,Altium Designer,19.0.14 (431)*
G04*
G04 Layer_Color=16711935*
%FSLAX44Y44*%
%MOMM*%
G71*
G01*
G75*
%ADD20C,1.7032*%
%ADD21C,3.6000*%
%ADD22C,1.8032*%
D20*
X33020Y76200D02*
D03*
X58420D02*
D03*
X83820D02*
D03*
X109220D02*
D03*
X134620D02*
D03*
X160020D02*
D03*
X185420D02*
D03*
X210820D02*
D03*
X236220D02*
D03*
X261620D02*
D03*
X287020D02*
D03*
X312420D02*
D03*
X337820D02*
D03*
X363220D02*
D03*
X388620D02*
D03*
X414020D02*
D03*
X439420D02*
D03*
X464820D02*
D03*
X490220D02*
D03*
X515620D02*
D03*
X541020D02*
D03*
X566420D02*
D03*
Y25400D02*
D03*
X541020D02*
D03*
X515620D02*
D03*
X490220D02*
D03*
X464820D02*
D03*
X439420D02*
D03*
X414020D02*
D03*
X388620D02*
D03*
X363220D02*
D03*
X337820D02*
D03*
X312420D02*
D03*
X287020D02*
D03*
X261620D02*
D03*
X236220D02*
D03*
X210820D02*
D03*
X185420D02*
D03*
X160020D02*
D03*
X134620D02*
D03*
X109220D02*
D03*
X83820D02*
D03*
X58420D02*
D03*
X33020D02*
D03*
X76200Y161950D02*
D03*
Y187350D02*
D03*
Y212750D02*
D03*
Y238150D02*
D03*
Y263550D02*
D03*
Y288950D02*
D03*
X50800Y336550D02*
D03*
Y371552D02*
D03*
X457200Y248920D02*
D03*
Y274320D02*
D03*
Y299720D02*
D03*
Y325120D02*
D03*
Y350520D02*
D03*
Y375920D02*
D03*
X431800Y223520D02*
D03*
Y248920D02*
D03*
Y274320D02*
D03*
Y299720D02*
D03*
Y325120D02*
D03*
Y350520D02*
D03*
Y375920D02*
D03*
Y401320D02*
D03*
X406400Y223520D02*
D03*
Y248920D02*
D03*
Y375920D02*
D03*
Y401320D02*
D03*
X381000Y223520D02*
D03*
Y248920D02*
D03*
Y375920D02*
D03*
Y401320D02*
D03*
X355600Y223520D02*
D03*
Y248920D02*
D03*
Y375920D02*
D03*
Y401320D02*
D03*
X330200Y223520D02*
D03*
Y248920D02*
D03*
Y375920D02*
D03*
Y401320D02*
D03*
X304800Y223520D02*
D03*
Y248920D02*
D03*
Y274320D02*
D03*
Y299720D02*
D03*
Y325120D02*
D03*
Y350520D02*
D03*
Y375920D02*
D03*
Y401320D02*
D03*
X279400Y248920D02*
D03*
Y274320D02*
D03*
Y299720D02*
D03*
Y325120D02*
D03*
Y350520D02*
D03*
Y375920D02*
D03*
D21*
X38100Y444500D02*
D03*
X596900D02*
D03*
Y150000D02*
D03*
D22*
X565150Y349250D02*
D03*
X590550D02*
D03*
X565150Y323850D02*
D03*
X590550D02*
D03*
X565150Y298450D02*
D03*
X590550D02*
D03*
X565150Y273050D02*
D03*
X590550D02*
D03*
X565150Y247650D02*
D03*
X590550D02*
D03*
M02*
