G04 #@! TF.GenerationSoftware,KiCad,Pcbnew,(5.1.0)-1*
G04 #@! TF.CreationDate,2020-01-14T09:56:01+09:00*
G04 #@! TF.ProjectId,motorDriver_pcb,6d6f746f-7244-4726-9976-65725f706362,rev?*
G04 #@! TF.SameCoordinates,Original*
G04 #@! TF.FileFunction,Copper,L1,Top*
G04 #@! TF.FilePolarity,Positive*
%FSLAX46Y46*%
G04 Gerber Fmt 4.6, Leading zero omitted, Abs format (unit mm)*
G04 Created by KiCad (PCBNEW (5.1.0)-1) date 2020-01-14 09:56:01*
%MOMM*%
%LPD*%
G04 APERTURE LIST*
%ADD10C,1.600000*%
%ADD11O,1.600000X1.600000*%
%ADD12R,1.800000X1.800000*%
%ADD13C,1.800000*%
%ADD14C,1.524000*%
%ADD15C,0.800000*%
%ADD16C,0.500000*%
%ADD17C,1.000000*%
G04 APERTURE END LIST*
D10*
X108030000Y-73660000D03*
X113030000Y-73660000D03*
X96520000Y-73660000D03*
X101520000Y-73660000D03*
X77470000Y-92710000D03*
D11*
X62230000Y-59690000D03*
X77470000Y-90170000D03*
X62230000Y-62230000D03*
X77470000Y-87630000D03*
X62230000Y-64770000D03*
X77470000Y-85090000D03*
X62230000Y-67310000D03*
X77470000Y-82550000D03*
X62230000Y-69850000D03*
X77470000Y-80010000D03*
X62230000Y-72390000D03*
X77470000Y-77470000D03*
X62230000Y-74930000D03*
X77470000Y-74930000D03*
X62230000Y-77470000D03*
X77470000Y-72390000D03*
X62230000Y-80010000D03*
X77470000Y-69850000D03*
X62230000Y-82550000D03*
X77470000Y-67310000D03*
X62230000Y-85090000D03*
X77470000Y-64770000D03*
X62230000Y-87630000D03*
X77470000Y-62230000D03*
X62230000Y-90170000D03*
X77470000Y-59690000D03*
X62230000Y-92710000D03*
X77470000Y-57150000D03*
X62230000Y-57150000D03*
D12*
X111760000Y-59690000D03*
D13*
X114300000Y-59690000D03*
D10*
X87630000Y-86360000D03*
D11*
X95250000Y-104140000D03*
X87630000Y-88900000D03*
X95250000Y-101600000D03*
X87630000Y-91440000D03*
X95250000Y-99060000D03*
X87630000Y-93980000D03*
X95250000Y-96520000D03*
X87630000Y-96520000D03*
X95250000Y-93980000D03*
X87630000Y-99060000D03*
X95250000Y-91440000D03*
X87630000Y-101600000D03*
X95250000Y-88900000D03*
X87630000Y-104140000D03*
X95250000Y-86360000D03*
D14*
X90170000Y-62230000D03*
X87630000Y-62230000D03*
X85090000Y-62230000D03*
X90170000Y-57150000D03*
X87630000Y-57150000D03*
X85090000Y-57150000D03*
D11*
X111760000Y-86360000D03*
X104140000Y-104140000D03*
X111760000Y-88900000D03*
X104140000Y-101600000D03*
X111760000Y-91440000D03*
X104140000Y-99060000D03*
X111760000Y-93980000D03*
X104140000Y-96520000D03*
X111760000Y-96520000D03*
X104140000Y-93980000D03*
X111760000Y-99060000D03*
X104140000Y-91440000D03*
X111760000Y-101600000D03*
X104140000Y-88900000D03*
X111760000Y-104140000D03*
D10*
X104140000Y-86360000D03*
X104140000Y-53340000D03*
D11*
X114300000Y-53340000D03*
X76200000Y-101600000D03*
D10*
X66040000Y-101600000D03*
X66040000Y-106680000D03*
D11*
X76200000Y-106680000D03*
D14*
X106680000Y-66040000D03*
X104140000Y-66040000D03*
X101600000Y-66040000D03*
X109220000Y-118110000D03*
X106680000Y-118110000D03*
X104140000Y-118110000D03*
X101600000Y-118110000D03*
X99060000Y-118110000D03*
X96520000Y-118110000D03*
X93980000Y-118110000D03*
X91440000Y-118110000D03*
X88900000Y-118110000D03*
X86360000Y-118110000D03*
X83820000Y-118110000D03*
X81280000Y-118110000D03*
X78740000Y-118110000D03*
X76200000Y-118110000D03*
X73660000Y-118110000D03*
X71120000Y-118110000D03*
X68580000Y-118110000D03*
X66040000Y-118110000D03*
X68580000Y-123190000D03*
X71120000Y-123190000D03*
X66040000Y-123190000D03*
X81280000Y-123190000D03*
X73660000Y-123190000D03*
X76200000Y-123190000D03*
X78740000Y-123190000D03*
X86360000Y-123190000D03*
X88900000Y-123190000D03*
X106680000Y-123190000D03*
X91440000Y-123190000D03*
X109220000Y-123190000D03*
X101600000Y-123190000D03*
X93980000Y-123190000D03*
X99060000Y-123190000D03*
X96520000Y-123190000D03*
X104140000Y-123190000D03*
X83820000Y-123190000D03*
D15*
X91440000Y-93980000D03*
X83820000Y-73660000D03*
X83820000Y-83820000D03*
X96520000Y-68580000D03*
D16*
X104140000Y-72390000D02*
X104140000Y-66040000D01*
X105410000Y-73660000D02*
X108030000Y-73660000D01*
X86360000Y-116840000D02*
X85090000Y-115570000D01*
X86360000Y-118110000D02*
X86360000Y-116840000D01*
X78740000Y-116840000D02*
X80010000Y-115570000D01*
X78740000Y-118110000D02*
X78740000Y-116840000D01*
X80010000Y-115570000D02*
X85090000Y-115570000D01*
X104140000Y-96520000D02*
X111760000Y-96520000D01*
X104140000Y-93980000D02*
X111760000Y-93980000D01*
X87630000Y-93980000D02*
X95250000Y-93980000D01*
X104140000Y-63500000D02*
X104140000Y-66040000D01*
X74930000Y-127000000D02*
X78740000Y-123190000D01*
X62230000Y-127000000D02*
X74930000Y-127000000D01*
X59690000Y-124460000D02*
X62230000Y-127000000D01*
X59690000Y-91440000D02*
X59690000Y-124460000D01*
X62230000Y-90170000D02*
X60960000Y-90170000D01*
X60960000Y-90170000D02*
X59690000Y-91440000D01*
X101520000Y-73660000D02*
X102870000Y-73660000D01*
X90170000Y-57150000D02*
X90170000Y-62230000D01*
X83820000Y-73660000D02*
X83820000Y-83820000D01*
X77470000Y-85090000D02*
X80010000Y-85090000D01*
X80010000Y-85090000D02*
X82550000Y-87630000D01*
X76200000Y-101600000D02*
X78740000Y-101600000D01*
X78740000Y-101600000D02*
X82550000Y-97790000D01*
X82550000Y-97790000D02*
X82550000Y-87630000D01*
X107950000Y-59690000D02*
X111760000Y-59690000D01*
X90170000Y-62230000D02*
X105410000Y-62230000D01*
X105410000Y-62230000D02*
X107950000Y-59690000D01*
X104140000Y-63500000D02*
X104140000Y-62230000D01*
X101520000Y-73660000D02*
X104140000Y-73660000D01*
X104140000Y-72390000D02*
X104140000Y-73660000D01*
X104140000Y-73660000D02*
X108030000Y-73660000D01*
X73660000Y-120650000D02*
X73660000Y-118110000D01*
X73660000Y-120650000D02*
X81280000Y-120650000D01*
X81280000Y-120650000D02*
X81280000Y-118110000D01*
X113030000Y-68580000D02*
X113030000Y-73660000D01*
X106680000Y-66040000D02*
X110490000Y-66040000D01*
X110490000Y-66040000D02*
X113030000Y-68580000D01*
X68580000Y-118110000D02*
X68580000Y-119380000D01*
X69850000Y-120650000D02*
X73660000Y-120650000D01*
X68580000Y-119380000D02*
X69850000Y-120650000D01*
X81280000Y-120650000D02*
X87630000Y-120650000D01*
X111760000Y-74930000D02*
X113030000Y-73660000D01*
X111760000Y-86360000D02*
X111760000Y-74930000D01*
X95250000Y-86360000D02*
X95250000Y-78740000D01*
X95250000Y-78740000D02*
X96520000Y-77470000D01*
X96520000Y-77470000D02*
X111760000Y-77470000D01*
X87630000Y-120650000D02*
X113030000Y-120650000D01*
X113030000Y-120650000D02*
X115570000Y-118110000D01*
X115570000Y-116840000D02*
X115570000Y-118110000D01*
X115570000Y-87630000D02*
X115570000Y-116840000D01*
X111760000Y-86360000D02*
X114300000Y-86360000D01*
X114300000Y-86360000D02*
X115570000Y-87630000D01*
X68580000Y-123190000D02*
X68580000Y-121920000D01*
X68580000Y-121920000D02*
X69850000Y-120650000D01*
X73660000Y-123190000D02*
X73660000Y-120650000D01*
X81280000Y-123190000D02*
X81280000Y-120650000D01*
X88900000Y-118110000D02*
X88900000Y-120650000D01*
X88900000Y-123190000D02*
X88900000Y-120650000D01*
X101600000Y-66040000D02*
X96520000Y-66040000D01*
X96520000Y-66040000D02*
X96520000Y-68580000D01*
X93980000Y-66040000D02*
X96520000Y-66040000D01*
X88900000Y-66040000D02*
X93980000Y-66040000D01*
X96520000Y-68580000D02*
X96520000Y-73660000D01*
D17*
X87630000Y-57150000D02*
X87630000Y-62230000D01*
X87630000Y-62230000D02*
X87630000Y-64770000D01*
X87630000Y-64770000D02*
X88900000Y-66040000D01*
X88900000Y-66040000D02*
X101600000Y-66040000D01*
X96520000Y-66040000D02*
X96520000Y-73660000D01*
D16*
X85090000Y-57150000D02*
X85090000Y-62230000D01*
X77470000Y-72390000D02*
X80010000Y-72390000D01*
X88900000Y-88900000D02*
X87630000Y-88900000D01*
X90170000Y-87630000D02*
X88900000Y-88900000D01*
X90170000Y-76200000D02*
X90170000Y-87630000D01*
X77470000Y-72390000D02*
X86360000Y-72390000D01*
X86360000Y-72390000D02*
X90170000Y-76200000D01*
X77470000Y-69850000D02*
X87630000Y-69850000D01*
X87630000Y-69850000D02*
X92710000Y-74930000D01*
X92710000Y-86360000D02*
X95250000Y-88900000D01*
X92710000Y-74930000D02*
X92710000Y-86360000D01*
X71120000Y-110490000D02*
X69850000Y-109220000D01*
X71120000Y-118110000D02*
X71120000Y-110490000D01*
X66040000Y-106680000D02*
X66040000Y-107950000D01*
X66040000Y-107950000D02*
X67310000Y-109220000D01*
X69850000Y-109220000D02*
X67310000Y-109220000D01*
X73660000Y-67310000D02*
X77470000Y-67310000D01*
X68580000Y-72390000D02*
X73660000Y-67310000D01*
X66040000Y-106680000D02*
X68580000Y-104140000D01*
X68580000Y-104140000D02*
X68580000Y-72390000D01*
X66040000Y-118110000D02*
X66040000Y-111760000D01*
X63500000Y-109220000D02*
X66040000Y-111760000D01*
X63500000Y-102870000D02*
X64770000Y-101600000D01*
X64770000Y-101600000D02*
X66040000Y-101600000D01*
X63500000Y-109220000D02*
X63500000Y-102870000D01*
X77470000Y-64770000D02*
X68580000Y-64770000D01*
X66040000Y-67310000D02*
X66040000Y-101600000D01*
X68580000Y-64770000D02*
X66040000Y-67310000D01*
X104140000Y-50800000D02*
X101600000Y-48260000D01*
X77470000Y-57150000D02*
X77470000Y-55880000D01*
X104140000Y-50800000D02*
X104140000Y-53340000D01*
X77470000Y-57150000D02*
X77470000Y-53340000D01*
X82550000Y-48260000D02*
X87630000Y-48260000D01*
X77470000Y-53340000D02*
X82550000Y-48260000D01*
X101600000Y-48260000D02*
X87630000Y-48260000D01*
X87630000Y-48260000D02*
X86360000Y-48260000D01*
X114300000Y-53340000D02*
X114300000Y-59690000D01*
X91440000Y-118110000D02*
X91440000Y-110490000D01*
X91440000Y-110490000D02*
X90170000Y-109220000D01*
X90170000Y-109220000D02*
X87630000Y-109220000D01*
X87630000Y-109220000D02*
X85090000Y-106680000D01*
X85090000Y-93980000D02*
X87630000Y-91440000D01*
X85090000Y-106680000D02*
X85090000Y-93980000D01*
X92710000Y-101600000D02*
X95250000Y-99060000D01*
X92710000Y-105410000D02*
X92710000Y-101600000D01*
X96520000Y-118110000D02*
X96520000Y-109220000D01*
X96520000Y-109220000D02*
X92710000Y-105410000D01*
X93980000Y-109220000D02*
X93980000Y-118110000D01*
X87630000Y-99060000D02*
X90170000Y-101600000D01*
X90170000Y-105410000D02*
X93980000Y-109220000D01*
X90170000Y-101600000D02*
X90170000Y-105410000D01*
X99060000Y-118110000D02*
X99060000Y-95250000D01*
X99060000Y-95250000D02*
X95250000Y-91440000D01*
X109220000Y-118110000D02*
X114300000Y-113030000D01*
X114300000Y-93980000D02*
X111760000Y-91440000D01*
X114300000Y-113030000D02*
X114300000Y-93980000D01*
X104140000Y-115570000D02*
X106680000Y-113030000D01*
X104140000Y-118110000D02*
X104140000Y-115570000D01*
X105410000Y-99060000D02*
X106680000Y-100330000D01*
X104140000Y-99060000D02*
X105410000Y-99060000D01*
X106680000Y-113030000D02*
X106680000Y-100330000D01*
X110490000Y-99060000D02*
X111760000Y-99060000D01*
X109220000Y-100330000D02*
X110490000Y-99060000D01*
X109220000Y-114300000D02*
X109220000Y-100330000D01*
X106680000Y-118110000D02*
X106680000Y-116840000D01*
X106680000Y-116840000D02*
X109220000Y-114300000D01*
X101600000Y-118110000D02*
X101600000Y-91440000D01*
X101600000Y-91440000D02*
X104140000Y-91440000D01*
M02*
