G04 #@! TF.GenerationSoftware,KiCad,Pcbnew,(5.1.0)-1*
G04 #@! TF.CreationDate,2020-01-14T09:56:01+09:00*
G04 #@! TF.ProjectId,motorDriver_pcb,6d6f746f-7244-4726-9976-65725f706362,rev?*
G04 #@! TF.SameCoordinates,Original*
G04 #@! TF.FileFunction,Legend,Bot*
G04 #@! TF.FilePolarity,Positive*
%FSLAX46Y46*%
G04 Gerber Fmt 4.6, Leading zero omitted, Abs format (unit mm)*
G04 Created by KiCad (PCBNEW (5.1.0)-1) date 2020-01-14 09:56:01*
%MOMM*%
%LPD*%
G04 APERTURE LIST*
%ADD10C,0.700000*%
G04 APERTURE END LIST*
D10*
X109614285Y-133071904D02*
X109614285Y-128071904D01*
X107947619Y-131643333D01*
X106280952Y-128071904D01*
X106280952Y-133071904D01*
X104138095Y-131643333D02*
X101757142Y-131643333D01*
X104614285Y-133071904D02*
X102947619Y-128071904D01*
X101280952Y-133071904D01*
X99614285Y-133071904D02*
X99614285Y-128071904D01*
X96757142Y-133071904D02*
X98900000Y-130214761D01*
X96757142Y-128071904D02*
X99614285Y-130929047D01*
X94614285Y-133071904D02*
X94614285Y-129738571D01*
X94614285Y-128071904D02*
X94852380Y-128310000D01*
X94614285Y-128548095D01*
X94376190Y-128310000D01*
X94614285Y-128071904D01*
X94614285Y-128548095D01*
X92233333Y-129738571D02*
X92233333Y-133071904D01*
X92233333Y-130214761D02*
X91995238Y-129976666D01*
X91519047Y-129738571D01*
X90804761Y-129738571D01*
X90328571Y-129976666D01*
X90090476Y-130452857D01*
X90090476Y-133071904D01*
X88423809Y-129738571D02*
X86519047Y-129738571D01*
X87709523Y-128071904D02*
X87709523Y-132357619D01*
X87471428Y-132833809D01*
X86995238Y-133071904D01*
X86519047Y-133071904D01*
X82947619Y-132833809D02*
X83423809Y-133071904D01*
X84376190Y-133071904D01*
X84852380Y-132833809D01*
X85090476Y-132357619D01*
X85090476Y-130452857D01*
X84852380Y-129976666D01*
X84376190Y-129738571D01*
X83423809Y-129738571D01*
X82947619Y-129976666D01*
X82709523Y-130452857D01*
X82709523Y-130929047D01*
X85090476Y-131405238D01*
X80566666Y-133071904D02*
X80566666Y-129738571D01*
X80566666Y-130690952D02*
X80328571Y-130214761D01*
X80090476Y-129976666D01*
X79614285Y-129738571D01*
X79138095Y-129738571D01*
X75328571Y-133071904D02*
X75328571Y-130452857D01*
X75566666Y-129976666D01*
X76042857Y-129738571D01*
X76995238Y-129738571D01*
X77471428Y-129976666D01*
X75328571Y-132833809D02*
X75804761Y-133071904D01*
X76995238Y-133071904D01*
X77471428Y-132833809D01*
X77709523Y-132357619D01*
X77709523Y-131881428D01*
X77471428Y-131405238D01*
X76995238Y-131167142D01*
X75804761Y-131167142D01*
X75328571Y-130929047D01*
X70804761Y-132833809D02*
X71280952Y-133071904D01*
X72233333Y-133071904D01*
X72709523Y-132833809D01*
X72947619Y-132595714D01*
X73185714Y-132119523D01*
X73185714Y-130690952D01*
X72947619Y-130214761D01*
X72709523Y-129976666D01*
X72233333Y-129738571D01*
X71280952Y-129738571D01*
X70804761Y-129976666D01*
X69376190Y-129738571D02*
X67471428Y-129738571D01*
X68661904Y-128071904D02*
X68661904Y-132357619D01*
X68423809Y-132833809D01*
X67947619Y-133071904D01*
X67471428Y-133071904D01*
M02*
