G04 #@! TF.GenerationSoftware,KiCad,Pcbnew,(5.1.0)-1*
G04 #@! TF.CreationDate,2020-01-14T09:56:01+09:00*
G04 #@! TF.ProjectId,motorDriver_pcb,6d6f746f-7244-4726-9976-65725f706362,rev?*
G04 #@! TF.SameCoordinates,Original*
G04 #@! TF.FileFunction,Legend,Top*
G04 #@! TF.FilePolarity,Positive*
%FSLAX46Y46*%
G04 Gerber Fmt 4.6, Leading zero omitted, Abs format (unit mm)*
G04 Created by KiCad (PCBNEW (5.1.0)-1) date 2020-01-14 09:56:01*
%MOMM*%
%LPD*%
G04 APERTURE LIST*
%ADD10C,0.150000*%
%ADD11C,0.120000*%
G04 APERTURE END LIST*
D10*
X79914761Y-90622380D02*
X79581428Y-90146190D01*
X79343333Y-90622380D02*
X79343333Y-89622380D01*
X79724285Y-89622380D01*
X79819523Y-89670000D01*
X79867142Y-89717619D01*
X79914761Y-89812857D01*
X79914761Y-89955714D01*
X79867142Y-90050952D01*
X79819523Y-90098571D01*
X79724285Y-90146190D01*
X79343333Y-90146190D01*
X80248095Y-90622380D02*
X80771904Y-89955714D01*
X80248095Y-89955714D02*
X80771904Y-90622380D01*
X79319523Y-92162380D02*
X79890952Y-92162380D01*
X79605238Y-93162380D02*
X79605238Y-92162380D01*
X80129047Y-93162380D02*
X80652857Y-92495714D01*
X80129047Y-92495714D02*
X80652857Y-93162380D01*
X61610952Y-95702380D02*
X61039523Y-95702380D01*
X61325238Y-95702380D02*
X61325238Y-94702380D01*
X61230000Y-94845238D01*
X61134761Y-94940476D01*
X61039523Y-94988095D01*
X61991904Y-94797619D02*
X62039523Y-94750000D01*
X62134761Y-94702380D01*
X62372857Y-94702380D01*
X62468095Y-94750000D01*
X62515714Y-94797619D01*
X62563333Y-94892857D01*
X62563333Y-94988095D01*
X62515714Y-95130952D01*
X61944285Y-95702380D01*
X62563333Y-95702380D01*
X62849047Y-94702380D02*
X63182380Y-95702380D01*
X63515714Y-94702380D01*
X105894285Y-62952380D02*
X106227619Y-63952380D01*
X106560952Y-62952380D01*
X107037142Y-63952380D02*
X106941904Y-63904761D01*
X106894285Y-63857142D01*
X106846666Y-63761904D01*
X106846666Y-63476190D01*
X106894285Y-63380952D01*
X106941904Y-63333333D01*
X107037142Y-63285714D01*
X107180000Y-63285714D01*
X107275238Y-63333333D01*
X107322857Y-63380952D01*
X107370476Y-63476190D01*
X107370476Y-63761904D01*
X107322857Y-63857142D01*
X107275238Y-63904761D01*
X107180000Y-63952380D01*
X107037142Y-63952380D01*
X104401904Y-63000000D02*
X104306666Y-62952380D01*
X104163809Y-62952380D01*
X104020952Y-63000000D01*
X103925714Y-63095238D01*
X103878095Y-63190476D01*
X103830476Y-63380952D01*
X103830476Y-63523809D01*
X103878095Y-63714285D01*
X103925714Y-63809523D01*
X104020952Y-63904761D01*
X104163809Y-63952380D01*
X104259047Y-63952380D01*
X104401904Y-63904761D01*
X104449523Y-63857142D01*
X104449523Y-63523809D01*
X104259047Y-63523809D01*
X101028571Y-62952380D02*
X101361904Y-63952380D01*
X101695238Y-62952380D01*
X102028571Y-63952380D02*
X102028571Y-63285714D01*
X102028571Y-62952380D02*
X101980952Y-63000000D01*
X102028571Y-63047619D01*
X102076190Y-63000000D01*
X102028571Y-62952380D01*
X102028571Y-63047619D01*
X89670000Y-49021904D02*
X89622380Y-49117142D01*
X89622380Y-49260000D01*
X89670000Y-49402857D01*
X89765238Y-49498095D01*
X89860476Y-49545714D01*
X90050952Y-49593333D01*
X90193809Y-49593333D01*
X90384285Y-49545714D01*
X90479523Y-49498095D01*
X90574761Y-49402857D01*
X90622380Y-49260000D01*
X90622380Y-49164761D01*
X90574761Y-49021904D01*
X90527142Y-48974285D01*
X90193809Y-48974285D01*
X90193809Y-49164761D01*
X90622380Y-48545714D02*
X89622380Y-48545714D01*
X90622380Y-47974285D01*
X89622380Y-47974285D01*
X90622380Y-47498095D02*
X89622380Y-47498095D01*
X89622380Y-47260000D01*
X89670000Y-47117142D01*
X89765238Y-47021904D01*
X89860476Y-46974285D01*
X90050952Y-46926666D01*
X90193809Y-46926666D01*
X90384285Y-46974285D01*
X90479523Y-47021904D01*
X90574761Y-47117142D01*
X90622380Y-47260000D01*
X90622380Y-47498095D01*
X88082380Y-48879047D02*
X88082380Y-49450476D01*
X88082380Y-49164761D02*
X87082380Y-49164761D01*
X87225238Y-49260000D01*
X87320476Y-49355238D01*
X87368095Y-49450476D01*
X87177619Y-48498095D02*
X87130000Y-48450476D01*
X87082380Y-48355238D01*
X87082380Y-48117142D01*
X87130000Y-48021904D01*
X87177619Y-47974285D01*
X87272857Y-47926666D01*
X87368095Y-47926666D01*
X87510952Y-47974285D01*
X88082380Y-48545714D01*
X88082380Y-47926666D01*
X87082380Y-47640952D02*
X88082380Y-47307619D01*
X87082380Y-46974285D01*
X84542380Y-48950476D02*
X84542380Y-48379047D01*
X85542380Y-48664761D02*
X84542380Y-48664761D01*
X85542380Y-48140952D02*
X84875714Y-47617142D01*
X84875714Y-48140952D02*
X85542380Y-47617142D01*
X66444761Y-133318095D02*
X66492380Y-133175238D01*
X66492380Y-132937142D01*
X66444761Y-132841904D01*
X66397142Y-132794285D01*
X66301904Y-132746666D01*
X66206666Y-132746666D01*
X66111428Y-132794285D01*
X66063809Y-132841904D01*
X66016190Y-132937142D01*
X65968571Y-133127619D01*
X65920952Y-133222857D01*
X65873333Y-133270476D01*
X65778095Y-133318095D01*
X65682857Y-133318095D01*
X65587619Y-133270476D01*
X65540000Y-133222857D01*
X65492380Y-133127619D01*
X65492380Y-132889523D01*
X65540000Y-132746666D01*
X65587619Y-132365714D02*
X65540000Y-132318095D01*
X65492380Y-132222857D01*
X65492380Y-131984761D01*
X65540000Y-131889523D01*
X65587619Y-131841904D01*
X65682857Y-131794285D01*
X65778095Y-131794285D01*
X65920952Y-131841904D01*
X66492380Y-132413333D01*
X66492380Y-131794285D01*
X66444761Y-131413333D02*
X66492380Y-131270476D01*
X66492380Y-131032380D01*
X66444761Y-130937142D01*
X66397142Y-130889523D01*
X66301904Y-130841904D01*
X66206666Y-130841904D01*
X66111428Y-130889523D01*
X66063809Y-130937142D01*
X66016190Y-131032380D01*
X65968571Y-131222857D01*
X65920952Y-131318095D01*
X65873333Y-131365714D01*
X65778095Y-131413333D01*
X65682857Y-131413333D01*
X65587619Y-131365714D01*
X65540000Y-131318095D01*
X65492380Y-131222857D01*
X65492380Y-130984761D01*
X65540000Y-130841904D01*
X68984761Y-133270476D02*
X69032380Y-133127619D01*
X69032380Y-132889523D01*
X68984761Y-132794285D01*
X68937142Y-132746666D01*
X68841904Y-132699047D01*
X68746666Y-132699047D01*
X68651428Y-132746666D01*
X68603809Y-132794285D01*
X68556190Y-132889523D01*
X68508571Y-133080000D01*
X68460952Y-133175238D01*
X68413333Y-133222857D01*
X68318095Y-133270476D01*
X68222857Y-133270476D01*
X68127619Y-133222857D01*
X68080000Y-133175238D01*
X68032380Y-133080000D01*
X68032380Y-132841904D01*
X68080000Y-132699047D01*
X68127619Y-132318095D02*
X68080000Y-132270476D01*
X68032380Y-132175238D01*
X68032380Y-131937142D01*
X68080000Y-131841904D01*
X68127619Y-131794285D01*
X68222857Y-131746666D01*
X68318095Y-131746666D01*
X68460952Y-131794285D01*
X69032380Y-132365714D01*
X69032380Y-131746666D01*
X68032380Y-131460952D02*
X69032380Y-131127619D01*
X68032380Y-130794285D01*
X71524761Y-133318095D02*
X71572380Y-133175238D01*
X71572380Y-132937142D01*
X71524761Y-132841904D01*
X71477142Y-132794285D01*
X71381904Y-132746666D01*
X71286666Y-132746666D01*
X71191428Y-132794285D01*
X71143809Y-132841904D01*
X71096190Y-132937142D01*
X71048571Y-133127619D01*
X71000952Y-133222857D01*
X70953333Y-133270476D01*
X70858095Y-133318095D01*
X70762857Y-133318095D01*
X70667619Y-133270476D01*
X70620000Y-133222857D01*
X70572380Y-133127619D01*
X70572380Y-132889523D01*
X70620000Y-132746666D01*
X71572380Y-131794285D02*
X71572380Y-132365714D01*
X71572380Y-132080000D02*
X70572380Y-132080000D01*
X70715238Y-132175238D01*
X70810476Y-132270476D01*
X70858095Y-132365714D01*
X71524761Y-131413333D02*
X71572380Y-131270476D01*
X71572380Y-131032380D01*
X71524761Y-130937142D01*
X71477142Y-130889523D01*
X71381904Y-130841904D01*
X71286666Y-130841904D01*
X71191428Y-130889523D01*
X71143809Y-130937142D01*
X71096190Y-131032380D01*
X71048571Y-131222857D01*
X71000952Y-131318095D01*
X70953333Y-131365714D01*
X70858095Y-131413333D01*
X70762857Y-131413333D01*
X70667619Y-131365714D01*
X70620000Y-131318095D01*
X70572380Y-131222857D01*
X70572380Y-130984761D01*
X70620000Y-130841904D01*
X74064761Y-133270476D02*
X74112380Y-133127619D01*
X74112380Y-132889523D01*
X74064761Y-132794285D01*
X74017142Y-132746666D01*
X73921904Y-132699047D01*
X73826666Y-132699047D01*
X73731428Y-132746666D01*
X73683809Y-132794285D01*
X73636190Y-132889523D01*
X73588571Y-133080000D01*
X73540952Y-133175238D01*
X73493333Y-133222857D01*
X73398095Y-133270476D01*
X73302857Y-133270476D01*
X73207619Y-133222857D01*
X73160000Y-133175238D01*
X73112380Y-133080000D01*
X73112380Y-132841904D01*
X73160000Y-132699047D01*
X74112380Y-131746666D02*
X74112380Y-132318095D01*
X74112380Y-132032380D02*
X73112380Y-132032380D01*
X73255238Y-132127619D01*
X73350476Y-132222857D01*
X73398095Y-132318095D01*
X73112380Y-131460952D02*
X74112380Y-131127619D01*
X73112380Y-130794285D01*
X76652380Y-133318095D02*
X75652380Y-133318095D01*
X76128571Y-133318095D02*
X76128571Y-132746666D01*
X76652380Y-132746666D02*
X75652380Y-132746666D01*
X75747619Y-132318095D02*
X75700000Y-132270476D01*
X75652380Y-132175238D01*
X75652380Y-131937142D01*
X75700000Y-131841904D01*
X75747619Y-131794285D01*
X75842857Y-131746666D01*
X75938095Y-131746666D01*
X76080952Y-131794285D01*
X76652380Y-132365714D01*
X76652380Y-131746666D01*
X76604761Y-131365714D02*
X76652380Y-131222857D01*
X76652380Y-130984761D01*
X76604761Y-130889523D01*
X76557142Y-130841904D01*
X76461904Y-130794285D01*
X76366666Y-130794285D01*
X76271428Y-130841904D01*
X76223809Y-130889523D01*
X76176190Y-130984761D01*
X76128571Y-131175238D01*
X76080952Y-131270476D01*
X76033333Y-131318095D01*
X75938095Y-131365714D01*
X75842857Y-131365714D01*
X75747619Y-131318095D01*
X75700000Y-131270476D01*
X75652380Y-131175238D01*
X75652380Y-130937142D01*
X75700000Y-130794285D01*
X79192380Y-133341904D02*
X78192380Y-133341904D01*
X78668571Y-133341904D02*
X78668571Y-132770476D01*
X79192380Y-132770476D02*
X78192380Y-132770476D01*
X78287619Y-132341904D02*
X78240000Y-132294285D01*
X78192380Y-132199047D01*
X78192380Y-131960952D01*
X78240000Y-131865714D01*
X78287619Y-131818095D01*
X78382857Y-131770476D01*
X78478095Y-131770476D01*
X78620952Y-131818095D01*
X79192380Y-132389523D01*
X79192380Y-131770476D01*
X78240000Y-130818095D02*
X78192380Y-130913333D01*
X78192380Y-131056190D01*
X78240000Y-131199047D01*
X78335238Y-131294285D01*
X78430476Y-131341904D01*
X78620952Y-131389523D01*
X78763809Y-131389523D01*
X78954285Y-131341904D01*
X79049523Y-131294285D01*
X79144761Y-131199047D01*
X79192380Y-131056190D01*
X79192380Y-130960952D01*
X79144761Y-130818095D01*
X79097142Y-130770476D01*
X78763809Y-130770476D01*
X78763809Y-130960952D01*
X81732380Y-133270476D02*
X80732380Y-133270476D01*
X81208571Y-133270476D02*
X81208571Y-132699047D01*
X81732380Y-132699047D02*
X80732380Y-132699047D01*
X80827619Y-132270476D02*
X80780000Y-132222857D01*
X80732380Y-132127619D01*
X80732380Y-131889523D01*
X80780000Y-131794285D01*
X80827619Y-131746666D01*
X80922857Y-131699047D01*
X81018095Y-131699047D01*
X81160952Y-131746666D01*
X81732380Y-132318095D01*
X81732380Y-131699047D01*
X80732380Y-131413333D02*
X81732380Y-131080000D01*
X80732380Y-130746666D01*
X84272380Y-133318095D02*
X83272380Y-133318095D01*
X83748571Y-133318095D02*
X83748571Y-132746666D01*
X84272380Y-132746666D02*
X83272380Y-132746666D01*
X84272380Y-131746666D02*
X84272380Y-132318095D01*
X84272380Y-132032380D02*
X83272380Y-132032380D01*
X83415238Y-132127619D01*
X83510476Y-132222857D01*
X83558095Y-132318095D01*
X84224761Y-131365714D02*
X84272380Y-131222857D01*
X84272380Y-130984761D01*
X84224761Y-130889523D01*
X84177142Y-130841904D01*
X84081904Y-130794285D01*
X83986666Y-130794285D01*
X83891428Y-130841904D01*
X83843809Y-130889523D01*
X83796190Y-130984761D01*
X83748571Y-131175238D01*
X83700952Y-131270476D01*
X83653333Y-131318095D01*
X83558095Y-131365714D01*
X83462857Y-131365714D01*
X83367619Y-131318095D01*
X83320000Y-131270476D01*
X83272380Y-131175238D01*
X83272380Y-130937142D01*
X83320000Y-130794285D01*
X86812380Y-133341904D02*
X85812380Y-133341904D01*
X86288571Y-133341904D02*
X86288571Y-132770476D01*
X86812380Y-132770476D02*
X85812380Y-132770476D01*
X86812380Y-131770476D02*
X86812380Y-132341904D01*
X86812380Y-132056190D02*
X85812380Y-132056190D01*
X85955238Y-132151428D01*
X86050476Y-132246666D01*
X86098095Y-132341904D01*
X85860000Y-130818095D02*
X85812380Y-130913333D01*
X85812380Y-131056190D01*
X85860000Y-131199047D01*
X85955238Y-131294285D01*
X86050476Y-131341904D01*
X86240952Y-131389523D01*
X86383809Y-131389523D01*
X86574285Y-131341904D01*
X86669523Y-131294285D01*
X86764761Y-131199047D01*
X86812380Y-131056190D01*
X86812380Y-130960952D01*
X86764761Y-130818095D01*
X86717142Y-130770476D01*
X86383809Y-130770476D01*
X86383809Y-130960952D01*
X89352380Y-133270476D02*
X88352380Y-133270476D01*
X88828571Y-133270476D02*
X88828571Y-132699047D01*
X89352380Y-132699047D02*
X88352380Y-132699047D01*
X89352380Y-131699047D02*
X89352380Y-132270476D01*
X89352380Y-131984761D02*
X88352380Y-131984761D01*
X88495238Y-132080000D01*
X88590476Y-132175238D01*
X88638095Y-132270476D01*
X88352380Y-131413333D02*
X89352380Y-131080000D01*
X88352380Y-130746666D01*
X91368571Y-133270476D02*
X91368571Y-132937142D01*
X91892380Y-132794285D02*
X91892380Y-133270476D01*
X90892380Y-133270476D01*
X90892380Y-132794285D01*
X90987619Y-132413333D02*
X90940000Y-132365714D01*
X90892380Y-132270476D01*
X90892380Y-132032380D01*
X90940000Y-131937142D01*
X90987619Y-131889523D01*
X91082857Y-131841904D01*
X91178095Y-131841904D01*
X91320952Y-131889523D01*
X91892380Y-132460952D01*
X91892380Y-131841904D01*
X91368571Y-131080000D02*
X91416190Y-130937142D01*
X91463809Y-130889523D01*
X91559047Y-130841904D01*
X91701904Y-130841904D01*
X91797142Y-130889523D01*
X91844761Y-130937142D01*
X91892380Y-131032380D01*
X91892380Y-131413333D01*
X90892380Y-131413333D01*
X90892380Y-131080000D01*
X90940000Y-130984761D01*
X90987619Y-130937142D01*
X91082857Y-130889523D01*
X91178095Y-130889523D01*
X91273333Y-130937142D01*
X91320952Y-130984761D01*
X91368571Y-131080000D01*
X91368571Y-131413333D01*
X93908571Y-133199047D02*
X93908571Y-132865714D01*
X94432380Y-132722857D02*
X94432380Y-133199047D01*
X93432380Y-133199047D01*
X93432380Y-132722857D01*
X93527619Y-132341904D02*
X93480000Y-132294285D01*
X93432380Y-132199047D01*
X93432380Y-131960952D01*
X93480000Y-131865714D01*
X93527619Y-131818095D01*
X93622857Y-131770476D01*
X93718095Y-131770476D01*
X93860952Y-131818095D01*
X94432380Y-132389523D01*
X94432380Y-131770476D01*
X94146666Y-131389523D02*
X94146666Y-130913333D01*
X94432380Y-131484761D02*
X93432380Y-131151428D01*
X94432380Y-130818095D01*
X96448571Y-133270476D02*
X96448571Y-132937142D01*
X96972380Y-132794285D02*
X96972380Y-133270476D01*
X95972380Y-133270476D01*
X95972380Y-132794285D01*
X96972380Y-131841904D02*
X96972380Y-132413333D01*
X96972380Y-132127619D02*
X95972380Y-132127619D01*
X96115238Y-132222857D01*
X96210476Y-132318095D01*
X96258095Y-132413333D01*
X96448571Y-131080000D02*
X96496190Y-130937142D01*
X96543809Y-130889523D01*
X96639047Y-130841904D01*
X96781904Y-130841904D01*
X96877142Y-130889523D01*
X96924761Y-130937142D01*
X96972380Y-131032380D01*
X96972380Y-131413333D01*
X95972380Y-131413333D01*
X95972380Y-131080000D01*
X96020000Y-130984761D01*
X96067619Y-130937142D01*
X96162857Y-130889523D01*
X96258095Y-130889523D01*
X96353333Y-130937142D01*
X96400952Y-130984761D01*
X96448571Y-131080000D01*
X96448571Y-131413333D01*
X98988571Y-133199047D02*
X98988571Y-132865714D01*
X99512380Y-132722857D02*
X99512380Y-133199047D01*
X98512380Y-133199047D01*
X98512380Y-132722857D01*
X99512380Y-131770476D02*
X99512380Y-132341904D01*
X99512380Y-132056190D02*
X98512380Y-132056190D01*
X98655238Y-132151428D01*
X98750476Y-132246666D01*
X98798095Y-132341904D01*
X99226666Y-131389523D02*
X99226666Y-130913333D01*
X99512380Y-131484761D02*
X98512380Y-131151428D01*
X99512380Y-130818095D01*
X102052380Y-133389523D02*
X101052380Y-133389523D01*
X101766666Y-133056190D01*
X101052380Y-132722857D01*
X102052380Y-132722857D01*
X101147619Y-132294285D02*
X101100000Y-132246666D01*
X101052380Y-132151428D01*
X101052380Y-131913333D01*
X101100000Y-131818095D01*
X101147619Y-131770476D01*
X101242857Y-131722857D01*
X101338095Y-131722857D01*
X101480952Y-131770476D01*
X102052380Y-132341904D01*
X102052380Y-131722857D01*
X101528571Y-130960952D02*
X101576190Y-130818095D01*
X101623809Y-130770476D01*
X101719047Y-130722857D01*
X101861904Y-130722857D01*
X101957142Y-130770476D01*
X102004761Y-130818095D01*
X102052380Y-130913333D01*
X102052380Y-131294285D01*
X101052380Y-131294285D01*
X101052380Y-130960952D01*
X101100000Y-130865714D01*
X101147619Y-130818095D01*
X101242857Y-130770476D01*
X101338095Y-130770476D01*
X101433333Y-130818095D01*
X101480952Y-130865714D01*
X101528571Y-130960952D01*
X101528571Y-131294285D01*
X104592380Y-133318095D02*
X103592380Y-133318095D01*
X104306666Y-132984761D01*
X103592380Y-132651428D01*
X104592380Y-132651428D01*
X103687619Y-132222857D02*
X103640000Y-132175238D01*
X103592380Y-132080000D01*
X103592380Y-131841904D01*
X103640000Y-131746666D01*
X103687619Y-131699047D01*
X103782857Y-131651428D01*
X103878095Y-131651428D01*
X104020952Y-131699047D01*
X104592380Y-132270476D01*
X104592380Y-131651428D01*
X104306666Y-131270476D02*
X104306666Y-130794285D01*
X104592380Y-131365714D02*
X103592380Y-131032380D01*
X104592380Y-130699047D01*
X107132380Y-133389523D02*
X106132380Y-133389523D01*
X106846666Y-133056190D01*
X106132380Y-132722857D01*
X107132380Y-132722857D01*
X107132380Y-131722857D02*
X107132380Y-132294285D01*
X107132380Y-132008571D02*
X106132380Y-132008571D01*
X106275238Y-132103809D01*
X106370476Y-132199047D01*
X106418095Y-132294285D01*
X106608571Y-130960952D02*
X106656190Y-130818095D01*
X106703809Y-130770476D01*
X106799047Y-130722857D01*
X106941904Y-130722857D01*
X107037142Y-130770476D01*
X107084761Y-130818095D01*
X107132380Y-130913333D01*
X107132380Y-131294285D01*
X106132380Y-131294285D01*
X106132380Y-130960952D01*
X106180000Y-130865714D01*
X106227619Y-130818095D01*
X106322857Y-130770476D01*
X106418095Y-130770476D01*
X106513333Y-130818095D01*
X106560952Y-130865714D01*
X106608571Y-130960952D01*
X106608571Y-131294285D01*
X109672380Y-133318095D02*
X108672380Y-133318095D01*
X109386666Y-132984761D01*
X108672380Y-132651428D01*
X109672380Y-132651428D01*
X109672380Y-131651428D02*
X109672380Y-132222857D01*
X109672380Y-131937142D02*
X108672380Y-131937142D01*
X108815238Y-132032380D01*
X108910476Y-132127619D01*
X108958095Y-132222857D01*
X109386666Y-131270476D02*
X109386666Y-130794285D01*
X109672380Y-131365714D02*
X108672380Y-131032380D01*
X109672380Y-130699047D01*
D11*
X106660000Y-75981000D02*
X106660000Y-71339000D01*
X114400000Y-75981000D02*
X114400000Y-71339000D01*
X114400000Y-71339000D02*
X106660000Y-71339000D01*
X114400000Y-75981000D02*
X106660000Y-75981000D01*
X95150000Y-71339000D02*
X102890000Y-71339000D01*
X95150000Y-75981000D02*
X102890000Y-75981000D01*
X95150000Y-71339000D02*
X95150000Y-75981000D01*
X102890000Y-71339000D02*
X102890000Y-75981000D01*
X76200000Y-91440000D02*
X76200000Y-93980000D01*
X76200000Y-93980000D02*
X78870000Y-93980000D01*
X78870000Y-91440000D02*
X78870000Y-53210000D01*
X78870000Y-96650000D02*
X78870000Y-93980000D01*
X63500000Y-93980000D02*
X60830000Y-93980000D01*
X63500000Y-93980000D02*
X63500000Y-55880000D01*
X63500000Y-55880000D02*
X60830000Y-55880000D01*
X76200000Y-91440000D02*
X78870000Y-91440000D01*
X76200000Y-91440000D02*
X76200000Y-55880000D01*
X76200000Y-55880000D02*
X78870000Y-55880000D01*
X78870000Y-53210000D02*
X60830000Y-53210000D01*
X60830000Y-53210000D02*
X60830000Y-96650000D01*
X60830000Y-96650000D02*
X78870000Y-96650000D01*
X114702335Y-58611392D02*
G75*
G03X111470000Y-58454484I-1672335J-1078608D01*
G01*
X114702335Y-60768608D02*
G75*
G02X111470000Y-60925516I-1672335J1078608D01*
G01*
X114071130Y-58610163D02*
G75*
G03X111989039Y-58610000I-1041130J-1079837D01*
G01*
X114071130Y-60769837D02*
G75*
G02X111989039Y-60770000I-1041130J1079837D01*
G01*
X111470000Y-58454000D02*
X111470000Y-58610000D01*
X111470000Y-60770000D02*
X111470000Y-60926000D01*
X92440000Y-85030000D02*
G75*
G02X90440000Y-85030000I-1000000J0D01*
G01*
X90440000Y-85030000D02*
X88790000Y-85030000D01*
X88790000Y-85030000D02*
X88790000Y-105470000D01*
X88790000Y-105470000D02*
X94090000Y-105470000D01*
X94090000Y-105470000D02*
X94090000Y-85030000D01*
X94090000Y-85030000D02*
X92440000Y-85030000D01*
X83820000Y-64770000D02*
X91440000Y-64770000D01*
X91440000Y-64770000D02*
X91440000Y-50800000D01*
X91440000Y-50800000D02*
X83820000Y-50800000D01*
X83820000Y-50800000D02*
X83820000Y-64770000D01*
X110600000Y-85030000D02*
X108950000Y-85030000D01*
X110600000Y-105470000D02*
X110600000Y-85030000D01*
X105300000Y-105470000D02*
X110600000Y-105470000D01*
X105300000Y-85030000D02*
X105300000Y-105470000D01*
X106950000Y-85030000D02*
X105300000Y-85030000D01*
X108950000Y-85030000D02*
G75*
G02X106950000Y-85030000I-1000000J0D01*
G01*
X105950000Y-51970000D02*
X105950000Y-54710000D01*
X105950000Y-54710000D02*
X112490000Y-54710000D01*
X112490000Y-54710000D02*
X112490000Y-51970000D01*
X112490000Y-51970000D02*
X105950000Y-51970000D01*
X105180000Y-53340000D02*
X105950000Y-53340000D01*
X113260000Y-53340000D02*
X112490000Y-53340000D01*
X75160000Y-101600000D02*
X74390000Y-101600000D01*
X67080000Y-101600000D02*
X67850000Y-101600000D01*
X74390000Y-100230000D02*
X67850000Y-100230000D01*
X74390000Y-102970000D02*
X74390000Y-100230000D01*
X67850000Y-102970000D02*
X74390000Y-102970000D01*
X67850000Y-100230000D02*
X67850000Y-102970000D01*
X67850000Y-105310000D02*
X67850000Y-108050000D01*
X67850000Y-108050000D02*
X74390000Y-108050000D01*
X74390000Y-108050000D02*
X74390000Y-105310000D01*
X74390000Y-105310000D02*
X67850000Y-105310000D01*
X67080000Y-106680000D02*
X67850000Y-106680000D01*
X75160000Y-106680000D02*
X74390000Y-106680000D01*
X107950000Y-64770000D02*
X100330000Y-64770000D01*
X107950000Y-67310000D02*
X107950000Y-64770000D01*
X100330000Y-67310000D02*
X107950000Y-67310000D01*
X100330000Y-64770000D02*
X100330000Y-67310000D01*
X110490000Y-115570000D02*
X110490000Y-129540000D01*
X110490000Y-129540000D02*
X64770000Y-129540000D01*
X64770000Y-129540000D02*
X64770000Y-115570000D01*
X64770000Y-115570000D02*
X110490000Y-115570000D01*
D10*
X108370952Y-76922380D02*
X108466190Y-76922380D01*
X108561428Y-76970000D01*
X108609047Y-77017619D01*
X108656666Y-77112857D01*
X108704285Y-77303333D01*
X108704285Y-77541428D01*
X108656666Y-77731904D01*
X108609047Y-77827142D01*
X108561428Y-77874761D01*
X108466190Y-77922380D01*
X108370952Y-77922380D01*
X108275714Y-77874761D01*
X108228095Y-77827142D01*
X108180476Y-77731904D01*
X108132857Y-77541428D01*
X108132857Y-77303333D01*
X108180476Y-77112857D01*
X108228095Y-77017619D01*
X108275714Y-76970000D01*
X108370952Y-76922380D01*
X109132857Y-77827142D02*
X109180476Y-77874761D01*
X109132857Y-77922380D01*
X109085238Y-77874761D01*
X109132857Y-77827142D01*
X109132857Y-77922380D01*
X110132857Y-77922380D02*
X109561428Y-77922380D01*
X109847142Y-77922380D02*
X109847142Y-76922380D01*
X109751904Y-77065238D01*
X109656666Y-77160476D01*
X109561428Y-77208095D01*
X110990000Y-77255714D02*
X110990000Y-77922380D01*
X110561428Y-77255714D02*
X110561428Y-77779523D01*
X110609047Y-77874761D01*
X110704285Y-77922380D01*
X110847142Y-77922380D01*
X110942380Y-77874761D01*
X110990000Y-77827142D01*
X111799523Y-77398571D02*
X111466190Y-77398571D01*
X111466190Y-77922380D02*
X111466190Y-76922380D01*
X111942380Y-76922380D01*
X112847142Y-77922380D02*
X112275714Y-77922380D01*
X112561428Y-77922380D02*
X112561428Y-76922380D01*
X112466190Y-77065238D01*
X112370952Y-77160476D01*
X112275714Y-77208095D01*
X96464761Y-76922380D02*
X96560000Y-76922380D01*
X96655238Y-76970000D01*
X96702857Y-77017619D01*
X96750476Y-77112857D01*
X96798095Y-77303333D01*
X96798095Y-77541428D01*
X96750476Y-77731904D01*
X96702857Y-77827142D01*
X96655238Y-77874761D01*
X96560000Y-77922380D01*
X96464761Y-77922380D01*
X96369523Y-77874761D01*
X96321904Y-77827142D01*
X96274285Y-77731904D01*
X96226666Y-77541428D01*
X96226666Y-77303333D01*
X96274285Y-77112857D01*
X96321904Y-77017619D01*
X96369523Y-76970000D01*
X96464761Y-76922380D01*
X97226666Y-77827142D02*
X97274285Y-77874761D01*
X97226666Y-77922380D01*
X97179047Y-77874761D01*
X97226666Y-77827142D01*
X97226666Y-77922380D01*
X97607619Y-76922380D02*
X98226666Y-76922380D01*
X97893333Y-77303333D01*
X98036190Y-77303333D01*
X98131428Y-77350952D01*
X98179047Y-77398571D01*
X98226666Y-77493809D01*
X98226666Y-77731904D01*
X98179047Y-77827142D01*
X98131428Y-77874761D01*
X98036190Y-77922380D01*
X97750476Y-77922380D01*
X97655238Y-77874761D01*
X97607619Y-77827142D01*
X98560000Y-76922380D02*
X99179047Y-76922380D01*
X98845714Y-77303333D01*
X98988571Y-77303333D01*
X99083809Y-77350952D01*
X99131428Y-77398571D01*
X99179047Y-77493809D01*
X99179047Y-77731904D01*
X99131428Y-77827142D01*
X99083809Y-77874761D01*
X98988571Y-77922380D01*
X98702857Y-77922380D01*
X98607619Y-77874761D01*
X98560000Y-77827142D01*
X100036190Y-77255714D02*
X100036190Y-77922380D01*
X99607619Y-77255714D02*
X99607619Y-77779523D01*
X99655238Y-77874761D01*
X99750476Y-77922380D01*
X99893333Y-77922380D01*
X99988571Y-77874761D01*
X100036190Y-77827142D01*
X100845714Y-77398571D02*
X100512380Y-77398571D01*
X100512380Y-77922380D02*
X100512380Y-76922380D01*
X100988571Y-76922380D01*
X101893333Y-77922380D02*
X101321904Y-77922380D01*
X101607619Y-77922380D02*
X101607619Y-76922380D01*
X101512380Y-77065238D01*
X101417142Y-77160476D01*
X101321904Y-77208095D01*
X67254761Y-57316666D02*
X67730952Y-57316666D01*
X67159523Y-57602380D02*
X67492857Y-56602380D01*
X67826190Y-57602380D01*
X68159523Y-57602380D02*
X68159523Y-56935714D01*
X68159523Y-57126190D02*
X68207142Y-57030952D01*
X68254761Y-56983333D01*
X68350000Y-56935714D01*
X68445238Y-56935714D01*
X69207142Y-57602380D02*
X69207142Y-56602380D01*
X69207142Y-57554761D02*
X69111904Y-57602380D01*
X68921428Y-57602380D01*
X68826190Y-57554761D01*
X68778571Y-57507142D01*
X68730952Y-57411904D01*
X68730952Y-57126190D01*
X68778571Y-57030952D01*
X68826190Y-56983333D01*
X68921428Y-56935714D01*
X69111904Y-56935714D01*
X69207142Y-56983333D01*
X70111904Y-56935714D02*
X70111904Y-57602380D01*
X69683333Y-56935714D02*
X69683333Y-57459523D01*
X69730952Y-57554761D01*
X69826190Y-57602380D01*
X69969047Y-57602380D01*
X70064285Y-57554761D01*
X70111904Y-57507142D01*
X70588095Y-57602380D02*
X70588095Y-56935714D01*
X70588095Y-56602380D02*
X70540476Y-56650000D01*
X70588095Y-56697619D01*
X70635714Y-56650000D01*
X70588095Y-56602380D01*
X70588095Y-56697619D01*
X71064285Y-56935714D02*
X71064285Y-57602380D01*
X71064285Y-57030952D02*
X71111904Y-56983333D01*
X71207142Y-56935714D01*
X71350000Y-56935714D01*
X71445238Y-56983333D01*
X71492857Y-57078571D01*
X71492857Y-57602380D01*
X72111904Y-57602380D02*
X72016666Y-57554761D01*
X71969047Y-57507142D01*
X71921428Y-57411904D01*
X71921428Y-57126190D01*
X71969047Y-57030952D01*
X72016666Y-56983333D01*
X72111904Y-56935714D01*
X72254761Y-56935714D01*
X72350000Y-56983333D01*
X72397619Y-57030952D01*
X72445238Y-57126190D01*
X72445238Y-57411904D01*
X72397619Y-57507142D01*
X72350000Y-57554761D01*
X72254761Y-57602380D01*
X72111904Y-57602380D01*
X112291904Y-57182380D02*
X112291904Y-56182380D01*
X112530000Y-56182380D01*
X112672857Y-56230000D01*
X112768095Y-56325238D01*
X112815714Y-56420476D01*
X112863333Y-56610952D01*
X112863333Y-56753809D01*
X112815714Y-56944285D01*
X112768095Y-57039523D01*
X112672857Y-57134761D01*
X112530000Y-57182380D01*
X112291904Y-57182380D01*
X113815714Y-57182380D02*
X113244285Y-57182380D01*
X113530000Y-57182380D02*
X113530000Y-56182380D01*
X113434761Y-56325238D01*
X113339523Y-56420476D01*
X113244285Y-56468095D01*
X88582857Y-83958571D02*
X88916190Y-83958571D01*
X89059047Y-84482380D02*
X88582857Y-84482380D01*
X88582857Y-83482380D01*
X89059047Y-83482380D01*
X89630476Y-84482380D02*
X89535238Y-84434761D01*
X89487619Y-84339523D01*
X89487619Y-83482380D01*
X90392380Y-84434761D02*
X90297142Y-84482380D01*
X90106666Y-84482380D01*
X90011428Y-84434761D01*
X89963809Y-84339523D01*
X89963809Y-83958571D01*
X90011428Y-83863333D01*
X90106666Y-83815714D01*
X90297142Y-83815714D01*
X90392380Y-83863333D01*
X90440000Y-83958571D01*
X90440000Y-84053809D01*
X89963809Y-84149047D01*
X91297142Y-84434761D02*
X91201904Y-84482380D01*
X91011428Y-84482380D01*
X90916190Y-84434761D01*
X90868571Y-84387142D01*
X90820952Y-84291904D01*
X90820952Y-84006190D01*
X90868571Y-83910952D01*
X90916190Y-83863333D01*
X91011428Y-83815714D01*
X91201904Y-83815714D01*
X91297142Y-83863333D01*
X91582857Y-83815714D02*
X91963809Y-83815714D01*
X91725714Y-83482380D02*
X91725714Y-84339523D01*
X91773333Y-84434761D01*
X91868571Y-84482380D01*
X91963809Y-84482380D01*
X92297142Y-84482380D02*
X92297142Y-83815714D01*
X92297142Y-84006190D02*
X92344761Y-83910952D01*
X92392380Y-83863333D01*
X92487619Y-83815714D01*
X92582857Y-83815714D01*
X93059047Y-84482380D02*
X92963809Y-84434761D01*
X92916190Y-84387142D01*
X92868571Y-84291904D01*
X92868571Y-84006190D01*
X92916190Y-83910952D01*
X92963809Y-83863333D01*
X93059047Y-83815714D01*
X93201904Y-83815714D01*
X93297142Y-83863333D01*
X93344761Y-83910952D01*
X93392380Y-84006190D01*
X93392380Y-84291904D01*
X93344761Y-84387142D01*
X93297142Y-84434761D01*
X93201904Y-84482380D01*
X93059047Y-84482380D01*
X94344761Y-84482380D02*
X93773333Y-84482380D01*
X94059047Y-84482380D02*
X94059047Y-83482380D01*
X93963809Y-83625238D01*
X93868571Y-83720476D01*
X93773333Y-83768095D01*
X86201428Y-53792380D02*
X86201428Y-52792380D01*
X86582380Y-52792380D01*
X86677619Y-52840000D01*
X86725238Y-52887619D01*
X86772857Y-52982857D01*
X86772857Y-53125714D01*
X86725238Y-53220952D01*
X86677619Y-53268571D01*
X86582380Y-53316190D01*
X86201428Y-53316190D01*
X87201428Y-53792380D02*
X87201428Y-53125714D01*
X87201428Y-52792380D02*
X87153809Y-52840000D01*
X87201428Y-52887619D01*
X87249047Y-52840000D01*
X87201428Y-52792380D01*
X87201428Y-52887619D01*
X87677619Y-53125714D02*
X87677619Y-53792380D01*
X87677619Y-53220952D02*
X87725238Y-53173333D01*
X87820476Y-53125714D01*
X87963333Y-53125714D01*
X88058571Y-53173333D01*
X88106190Y-53268571D01*
X88106190Y-53792380D01*
X88487142Y-52792380D02*
X89106190Y-52792380D01*
X88772857Y-53173333D01*
X88915714Y-53173333D01*
X89010952Y-53220952D01*
X89058571Y-53268571D01*
X89106190Y-53363809D01*
X89106190Y-53601904D01*
X89058571Y-53697142D01*
X89010952Y-53744761D01*
X88915714Y-53792380D01*
X88630000Y-53792380D01*
X88534761Y-53744761D01*
X88487142Y-53697142D01*
X105640476Y-84482380D02*
X105640476Y-83482380D01*
X105973809Y-84196666D01*
X106307142Y-83482380D01*
X106307142Y-84482380D01*
X106926190Y-84482380D02*
X106830952Y-84434761D01*
X106783333Y-84387142D01*
X106735714Y-84291904D01*
X106735714Y-84006190D01*
X106783333Y-83910952D01*
X106830952Y-83863333D01*
X106926190Y-83815714D01*
X107069047Y-83815714D01*
X107164285Y-83863333D01*
X107211904Y-83910952D01*
X107259523Y-84006190D01*
X107259523Y-84291904D01*
X107211904Y-84387142D01*
X107164285Y-84434761D01*
X107069047Y-84482380D01*
X106926190Y-84482380D01*
X107545238Y-83815714D02*
X107926190Y-83815714D01*
X107688095Y-83482380D02*
X107688095Y-84339523D01*
X107735714Y-84434761D01*
X107830952Y-84482380D01*
X107926190Y-84482380D01*
X108402380Y-84482380D02*
X108307142Y-84434761D01*
X108259523Y-84387142D01*
X108211904Y-84291904D01*
X108211904Y-84006190D01*
X108259523Y-83910952D01*
X108307142Y-83863333D01*
X108402380Y-83815714D01*
X108545238Y-83815714D01*
X108640476Y-83863333D01*
X108688095Y-83910952D01*
X108735714Y-84006190D01*
X108735714Y-84291904D01*
X108688095Y-84387142D01*
X108640476Y-84434761D01*
X108545238Y-84482380D01*
X108402380Y-84482380D01*
X109164285Y-84482380D02*
X109164285Y-83815714D01*
X109164285Y-84006190D02*
X109211904Y-83910952D01*
X109259523Y-83863333D01*
X109354761Y-83815714D01*
X109450000Y-83815714D01*
X110307142Y-84482380D02*
X109735714Y-84482380D01*
X110021428Y-84482380D02*
X110021428Y-83482380D01*
X109926190Y-83625238D01*
X109830952Y-83720476D01*
X109735714Y-83768095D01*
X108458095Y-50755714D02*
X108458095Y-51422380D01*
X108220000Y-50374761D02*
X107981904Y-51089047D01*
X108600952Y-51089047D01*
X109172380Y-50422380D02*
X109267619Y-50422380D01*
X109362857Y-50470000D01*
X109410476Y-50517619D01*
X109458095Y-50612857D01*
X109505714Y-50803333D01*
X109505714Y-51041428D01*
X109458095Y-51231904D01*
X109410476Y-51327142D01*
X109362857Y-51374761D01*
X109267619Y-51422380D01*
X109172380Y-51422380D01*
X109077142Y-51374761D01*
X109029523Y-51327142D01*
X108981904Y-51231904D01*
X108934285Y-51041428D01*
X108934285Y-50803333D01*
X108981904Y-50612857D01*
X109029523Y-50517619D01*
X109077142Y-50470000D01*
X109172380Y-50422380D01*
X110124761Y-50422380D02*
X110220000Y-50422380D01*
X110315238Y-50470000D01*
X110362857Y-50517619D01*
X110410476Y-50612857D01*
X110458095Y-50803333D01*
X110458095Y-51041428D01*
X110410476Y-51231904D01*
X110362857Y-51327142D01*
X110315238Y-51374761D01*
X110220000Y-51422380D01*
X110124761Y-51422380D01*
X110029523Y-51374761D01*
X109981904Y-51327142D01*
X109934285Y-51231904D01*
X109886666Y-51041428D01*
X109886666Y-50803333D01*
X109934285Y-50612857D01*
X109981904Y-50517619D01*
X110029523Y-50470000D01*
X110124761Y-50422380D01*
X70429523Y-99682380D02*
X69858095Y-99682380D01*
X70143809Y-99682380D02*
X70143809Y-98682380D01*
X70048571Y-98825238D01*
X69953333Y-98920476D01*
X69858095Y-98968095D01*
X71048571Y-98682380D02*
X71143809Y-98682380D01*
X71239047Y-98730000D01*
X71286666Y-98777619D01*
X71334285Y-98872857D01*
X71381904Y-99063333D01*
X71381904Y-99301428D01*
X71334285Y-99491904D01*
X71286666Y-99587142D01*
X71239047Y-99634761D01*
X71143809Y-99682380D01*
X71048571Y-99682380D01*
X70953333Y-99634761D01*
X70905714Y-99587142D01*
X70858095Y-99491904D01*
X70810476Y-99301428D01*
X70810476Y-99063333D01*
X70858095Y-98872857D01*
X70905714Y-98777619D01*
X70953333Y-98730000D01*
X71048571Y-98682380D01*
X71810476Y-99682380D02*
X71810476Y-98682380D01*
X72381904Y-99682380D02*
X71953333Y-99110952D01*
X72381904Y-98682380D02*
X71810476Y-99253809D01*
X70429523Y-104762380D02*
X69858095Y-104762380D01*
X70143809Y-104762380D02*
X70143809Y-103762380D01*
X70048571Y-103905238D01*
X69953333Y-104000476D01*
X69858095Y-104048095D01*
X71048571Y-103762380D02*
X71143809Y-103762380D01*
X71239047Y-103810000D01*
X71286666Y-103857619D01*
X71334285Y-103952857D01*
X71381904Y-104143333D01*
X71381904Y-104381428D01*
X71334285Y-104571904D01*
X71286666Y-104667142D01*
X71239047Y-104714761D01*
X71143809Y-104762380D01*
X71048571Y-104762380D01*
X70953333Y-104714761D01*
X70905714Y-104667142D01*
X70858095Y-104571904D01*
X70810476Y-104381428D01*
X70810476Y-104143333D01*
X70858095Y-103952857D01*
X70905714Y-103857619D01*
X70953333Y-103810000D01*
X71048571Y-103762380D01*
X71810476Y-104762380D02*
X71810476Y-103762380D01*
X72381904Y-104762380D02*
X71953333Y-104190952D01*
X72381904Y-103762380D02*
X71810476Y-104333809D01*
X102544761Y-69032380D02*
X102068571Y-69032380D01*
X102068571Y-68032380D01*
X102782857Y-68032380D02*
X103449523Y-68032380D01*
X103020952Y-69032380D01*
X103973333Y-68460952D02*
X103878095Y-68413333D01*
X103830476Y-68365714D01*
X103782857Y-68270476D01*
X103782857Y-68222857D01*
X103830476Y-68127619D01*
X103878095Y-68080000D01*
X103973333Y-68032380D01*
X104163809Y-68032380D01*
X104259047Y-68080000D01*
X104306666Y-68127619D01*
X104354285Y-68222857D01*
X104354285Y-68270476D01*
X104306666Y-68365714D01*
X104259047Y-68413333D01*
X104163809Y-68460952D01*
X103973333Y-68460952D01*
X103878095Y-68508571D01*
X103830476Y-68556190D01*
X103782857Y-68651428D01*
X103782857Y-68841904D01*
X103830476Y-68937142D01*
X103878095Y-68984761D01*
X103973333Y-69032380D01*
X104163809Y-69032380D01*
X104259047Y-68984761D01*
X104306666Y-68937142D01*
X104354285Y-68841904D01*
X104354285Y-68651428D01*
X104306666Y-68556190D01*
X104259047Y-68508571D01*
X104163809Y-68460952D01*
X104973333Y-68032380D02*
X105068571Y-68032380D01*
X105163809Y-68080000D01*
X105211428Y-68127619D01*
X105259047Y-68222857D01*
X105306666Y-68413333D01*
X105306666Y-68651428D01*
X105259047Y-68841904D01*
X105211428Y-68937142D01*
X105163809Y-68984761D01*
X105068571Y-69032380D01*
X104973333Y-69032380D01*
X104878095Y-68984761D01*
X104830476Y-68937142D01*
X104782857Y-68841904D01*
X104735238Y-68651428D01*
X104735238Y-68413333D01*
X104782857Y-68222857D01*
X104830476Y-68127619D01*
X104878095Y-68080000D01*
X104973333Y-68032380D01*
X106211428Y-68032380D02*
X105735238Y-68032380D01*
X105687619Y-68508571D01*
X105735238Y-68460952D01*
X105830476Y-68413333D01*
X106068571Y-68413333D01*
X106163809Y-68460952D01*
X106211428Y-68508571D01*
X106259047Y-68603809D01*
X106259047Y-68841904D01*
X106211428Y-68937142D01*
X106163809Y-68984761D01*
X106068571Y-69032380D01*
X105830476Y-69032380D01*
X105735238Y-68984761D01*
X105687619Y-68937142D01*
X84455238Y-127452380D02*
X84455238Y-126452380D01*
X84836190Y-126452380D01*
X84931428Y-126500000D01*
X84979047Y-126547619D01*
X85026666Y-126642857D01*
X85026666Y-126785714D01*
X84979047Y-126880952D01*
X84931428Y-126928571D01*
X84836190Y-126976190D01*
X84455238Y-126976190D01*
X85455238Y-127452380D02*
X85455238Y-126785714D01*
X85455238Y-126452380D02*
X85407619Y-126500000D01*
X85455238Y-126547619D01*
X85502857Y-126500000D01*
X85455238Y-126452380D01*
X85455238Y-126547619D01*
X85931428Y-126785714D02*
X85931428Y-127452380D01*
X85931428Y-126880952D02*
X85979047Y-126833333D01*
X86074285Y-126785714D01*
X86217142Y-126785714D01*
X86312380Y-126833333D01*
X86360000Y-126928571D01*
X86360000Y-127452380D01*
X87360000Y-127452380D02*
X86788571Y-127452380D01*
X87074285Y-127452380D02*
X87074285Y-126452380D01*
X86979047Y-126595238D01*
X86883809Y-126690476D01*
X86788571Y-126738095D01*
X87931428Y-126880952D02*
X87836190Y-126833333D01*
X87788571Y-126785714D01*
X87740952Y-126690476D01*
X87740952Y-126642857D01*
X87788571Y-126547619D01*
X87836190Y-126500000D01*
X87931428Y-126452380D01*
X88121904Y-126452380D01*
X88217142Y-126500000D01*
X88264761Y-126547619D01*
X88312380Y-126642857D01*
X88312380Y-126690476D01*
X88264761Y-126785714D01*
X88217142Y-126833333D01*
X88121904Y-126880952D01*
X87931428Y-126880952D01*
X87836190Y-126928571D01*
X87788571Y-126976190D01*
X87740952Y-127071428D01*
X87740952Y-127261904D01*
X87788571Y-127357142D01*
X87836190Y-127404761D01*
X87931428Y-127452380D01*
X88121904Y-127452380D01*
X88217142Y-127404761D01*
X88264761Y-127357142D01*
X88312380Y-127261904D01*
X88312380Y-127071428D01*
X88264761Y-126976190D01*
X88217142Y-126928571D01*
X88121904Y-126880952D01*
M02*
