M48
; DRILL file {KiCad (5.1.0)-1} date 1/14/2020 9:56:15 AM
; FORMAT={-:-/ absolute / inch / decimal}
; #@! TF.CreationDate,2020-01-14T09:56:15+09:00
; #@! TF.GenerationSoftware,Kicad,Pcbnew,(5.1.0)-1
; #@! TF.FileFunction,Plated,1,2,PTH
FMAT,2
INCH
T1C0.0157
T2C0.0300
T3C0.0315
T4C0.0354
%
G90
G05
T1
X3.3Y-2.9
X3.3Y-3.3
X3.6Y-3.7
X3.8Y-2.7
T2
X3.35Y-2.25
X3.35Y-2.45
X3.45Y-2.25
X3.45Y-2.45
X3.55Y-2.25
X3.55Y-2.45
X2.6Y-4.65
X2.6Y-4.85
X2.7Y-4.65
X2.7Y-4.85
X2.8Y-4.65
X2.8Y-4.85
X2.9Y-4.65
X2.9Y-4.85
X3.0Y-4.65
X3.0Y-4.85
X3.1Y-4.65
X3.1Y-4.85
X3.2Y-4.65
X3.2Y-4.85
X3.3Y-4.65
X3.3Y-4.85
X3.4Y-4.65
X3.4Y-4.85
X3.5Y-4.65
X3.5Y-4.85
X3.6Y-4.65
X3.6Y-4.85
X3.7Y-4.65
X3.7Y-4.85
X3.8Y-4.65
X3.8Y-4.85
X3.9Y-4.65
X3.9Y-4.85
X4.0Y-4.65
X4.0Y-4.85
X4.1Y-4.65
X4.1Y-4.85
X4.2Y-4.65
X4.2Y-4.85
X4.3Y-4.65
X4.3Y-4.85
X4.0Y-2.6
X4.1Y-2.6
X4.2Y-2.6
T3
X2.6Y-4.2
X3.0Y-4.2
X3.45Y-3.4
X3.45Y-3.5
X3.45Y-3.6
X3.45Y-3.7
X3.45Y-3.8
X3.45Y-3.9
X3.45Y-4.0
X3.45Y-4.1
X3.75Y-3.4
X3.75Y-3.5
X3.75Y-3.6
X3.75Y-3.7
X3.75Y-3.8
X3.75Y-3.9
X3.75Y-4.0
X3.75Y-4.1
X4.1Y-2.1
X4.5Y-2.1
X2.45Y-2.25
X2.45Y-2.35
X2.45Y-2.45
X2.45Y-2.55
X2.45Y-2.65
X2.45Y-2.75
X2.45Y-2.85
X2.45Y-2.95
X2.45Y-3.05
X2.45Y-3.15
X2.45Y-3.25
X2.45Y-3.35
X2.45Y-3.45
X2.45Y-3.55
X2.45Y-3.65
X3.05Y-2.25
X3.05Y-2.35
X3.05Y-2.45
X3.05Y-2.55
X3.05Y-2.65
X3.05Y-2.75
X3.05Y-2.85
X3.05Y-2.95
X3.05Y-3.05
X3.05Y-3.15
X3.05Y-3.25
X3.05Y-3.35
X3.05Y-3.45
X3.05Y-3.55
X3.05Y-3.65
X4.1Y-3.4
X4.1Y-3.5
X4.1Y-3.6
X4.1Y-3.7
X4.1Y-3.8
X4.1Y-3.9
X4.1Y-4.0
X4.1Y-4.1
X4.4Y-3.4
X4.4Y-3.5
X4.4Y-3.6
X4.4Y-3.7
X4.4Y-3.8
X4.4Y-3.9
X4.4Y-4.0
X4.4Y-4.1
X3.8Y-2.9
X3.9969Y-2.9
X4.2531Y-2.9
X4.45Y-2.9
X2.6Y-4.0
X3.0Y-4.0
T4
X4.4Y-2.35
X4.5Y-2.35
T0
M30
